<svg width="549" height="87" viewBox="0 0 549 87" fill="none" xmlns="http://www.w3.org/2000/svg">
<mask id="path-1-outside-1_1055_719" maskUnits="userSpaceOnUse" x="-3" y="-7" width="555" height="99" fill="black">
<rect fill="white" x="-3" y="-7" width="555" height="99"/>
<path d="M32.57 3.58C50.51 3.58 65 16.345 65 32.1C65 37.505 63.275 42.565 60.285 46.935L32.8 85H9.8L28.89 60.39C12.79 58.78 0.255 46.705 0.255 32.1C0.255 16.345 14.745 3.58 32.57 3.58ZM32.57 43.945C40.045 43.945 46.14 38.655 46.14 32.1C46.14 25.545 40.045 20.14 32.57 20.14C25.095 20.14 19.115 25.545 19.115 32.1C19.115 38.655 25.095 43.945 32.57 43.945ZM105.793 3.58C123.733 3.58 138.223 16.345 138.223 32.1C138.223 37.505 136.498 42.565 133.508 46.935L106.023 85H83.0227L102.113 60.39C86.0127 58.78 73.4777 46.705 73.4777 32.1C73.4777 16.345 87.9677 3.58 105.793 3.58ZM105.793 43.945C113.268 43.945 119.363 38.655 119.363 32.1C119.363 25.545 113.268 20.14 105.793 20.14C98.3177 20.14 92.3377 25.545 92.3377 32.1C92.3377 38.655 98.3177 43.945 105.793 43.945ZM256.24 33.25C259.115 38.425 263.485 42.795 268.775 45.67C263.485 48.545 259.115 52.915 256.24 58.205C253.365 52.915 249.11 48.545 243.82 45.67C249.11 42.795 253.365 38.425 256.24 33.25ZM227.03 67.865C232.205 67.865 237.035 66.14 240.83 63.265L254.285 76.72C246.925 83.045 237.495 86.84 227.03 86.84C204.03 86.84 185.4 68.095 185.4 45.095C185.4 22.095 204.03 3.46499 227.03 3.46499C237.495 3.46499 246.925 7.25999 254.285 13.585L240.83 26.925C237.035 24.05 232.205 22.325 227.03 22.325C214.495 22.325 204.26 32.56 204.26 45.095C204.26 57.745 214.495 67.865 227.03 67.865ZM309.624 32.675C312.499 37.85 316.754 42.22 322.044 45.095C316.754 47.97 312.499 52.34 309.624 57.63C306.749 52.34 302.379 47.97 297.089 45.095C302.379 42.22 306.749 37.85 309.624 32.675ZM293.294 85H274.089V5.19H293.294V85ZM345.159 85H325.839V5.19H345.159V85ZM407.92 45.095C402.745 47.97 398.375 52.34 395.5 57.63C392.625 52.34 388.255 47.97 382.965 45.095C388.255 42.22 392.625 37.85 395.5 32.675C398.375 37.85 402.745 42.22 407.92 45.095ZM409.645 5.19V21.06H375.145V69.13H409.645V85H356.745V5.19H409.645ZM454.385 60.045C457.26 65.335 461.515 69.59 466.805 72.465C461.515 75.34 457.26 79.71 454.385 85C451.51 79.71 447.14 75.34 441.85 72.465C447.14 69.59 451.51 65.335 454.385 60.045ZM454.27 0.244994L496.36 85H477.845L454.27 34.515L430.925 85H412.41L454.27 0.244994ZM485.769 5.19H548.789V22.44H526.824V85H507.619V22.44H485.769V5.19Z"/>
</mask>
<path d="M32.57 3.58C50.51 3.58 65 16.345 65 32.1C65 37.505 63.275 42.565 60.285 46.935L32.8 85H9.8L28.89 60.39C12.79 58.78 0.255 46.705 0.255 32.1C0.255 16.345 14.745 3.58 32.57 3.58ZM32.57 43.945C40.045 43.945 46.14 38.655 46.14 32.1C46.14 25.545 40.045 20.14 32.57 20.14C25.095 20.14 19.115 25.545 19.115 32.1C19.115 38.655 25.095 43.945 32.57 43.945ZM105.793 3.58C123.733 3.58 138.223 16.345 138.223 32.1C138.223 37.505 136.498 42.565 133.508 46.935L106.023 85H83.0227L102.113 60.39C86.0127 58.78 73.4777 46.705 73.4777 32.1C73.4777 16.345 87.9677 3.58 105.793 3.58ZM105.793 43.945C113.268 43.945 119.363 38.655 119.363 32.1C119.363 25.545 113.268 20.14 105.793 20.14C98.3177 20.14 92.3377 25.545 92.3377 32.1C92.3377 38.655 98.3177 43.945 105.793 43.945ZM256.24 33.25C259.115 38.425 263.485 42.795 268.775 45.67C263.485 48.545 259.115 52.915 256.24 58.205C253.365 52.915 249.11 48.545 243.82 45.67C249.11 42.795 253.365 38.425 256.24 33.25ZM227.03 67.865C232.205 67.865 237.035 66.14 240.83 63.265L254.285 76.72C246.925 83.045 237.495 86.84 227.03 86.84C204.03 86.84 185.4 68.095 185.4 45.095C185.4 22.095 204.03 3.46499 227.03 3.46499C237.495 3.46499 246.925 7.25999 254.285 13.585L240.83 26.925C237.035 24.05 232.205 22.325 227.03 22.325C214.495 22.325 204.26 32.56 204.26 45.095C204.26 57.745 214.495 67.865 227.03 67.865ZM309.624 32.675C312.499 37.85 316.754 42.22 322.044 45.095C316.754 47.97 312.499 52.34 309.624 57.63C306.749 52.34 302.379 47.97 297.089 45.095C302.379 42.22 306.749 37.85 309.624 32.675ZM293.294 85H274.089V5.19H293.294V85ZM345.159 85H325.839V5.19H345.159V85ZM407.92 45.095C402.745 47.97 398.375 52.34 395.5 57.63C392.625 52.34 388.255 47.97 382.965 45.095C388.255 42.22 392.625 37.85 395.5 32.675C398.375 37.85 402.745 42.22 407.92 45.095ZM409.645 5.19V21.06H375.145V69.13H409.645V85H356.745V5.19H409.645ZM454.385 60.045C457.26 65.335 461.515 69.59 466.805 72.465C461.515 75.34 457.26 79.71 454.385 85C451.51 79.71 447.14 75.34 441.85 72.465C447.14 69.59 451.51 65.335 454.385 60.045ZM454.27 0.244994L496.36 85H477.845L454.27 34.515L430.925 85H412.41L454.27 0.244994ZM485.769 5.19H548.789V22.44H526.824V85H507.619V22.44H485.769V5.19Z" fill="#3A2152"/>
<path d="M60.285 46.935L62.7172 48.6912L62.7395 48.6604L62.7609 48.6291L60.285 46.935ZM32.8 85V88H34.3341L35.2322 86.7562L32.8 85ZM9.8 85L7.42956 83.1612L3.67614 88H9.8V85ZM28.89 60.39L31.2604 62.2288L34.5838 57.9444L29.1885 57.4049L28.89 60.39ZM32.57 6.58C49.2253 6.58 62 18.351 62 32.1H68C68 14.339 51.7947 0.579999 32.57 0.579999V6.58ZM62 32.1C62 36.847 60.4891 41.3239 57.8091 45.2409L62.7609 48.6291C66.0609 43.806 68 38.163 68 32.1H62ZM57.8528 45.1788L30.3678 83.2438L35.2322 86.7562L62.7172 48.6912L57.8528 45.1788ZM32.8 82H9.8V88H32.8V82ZM12.1704 86.8388L31.2604 62.2288L26.5196 58.5512L7.42956 83.1612L12.1704 86.8388ZM29.1885 57.4049C14.2912 55.9152 3.255 44.8525 3.255 32.1H-2.745C-2.745 48.5575 11.2888 61.6448 28.5915 63.3751L29.1885 57.4049ZM3.255 32.1C3.255 18.3446 16.037 6.58 32.57 6.58V0.579999C13.453 0.579999 -2.745 14.3454 -2.745 32.1H3.255ZM32.57 46.945C41.3005 46.945 49.14 40.6865 49.14 32.1H43.14C43.14 36.6235 38.7895 40.945 32.57 40.945V46.945ZM49.14 32.1C49.14 23.5483 41.3403 17.14 32.57 17.14V23.14C38.7497 23.14 43.14 27.5417 43.14 32.1H49.14ZM32.57 17.14C23.7648 17.14 16.115 23.5794 16.115 32.1H22.115C22.115 27.5106 26.4252 23.14 32.57 23.14V17.14ZM16.115 32.1C16.115 40.6558 23.8044 46.945 32.57 46.945V40.945C26.3856 40.945 22.115 36.6542 22.115 32.1H16.115ZM133.508 46.935L135.94 48.6912L135.962 48.6604L135.984 48.6291L133.508 46.935ZM106.023 85V88H107.557L108.455 86.7562L106.023 85ZM83.0227 85L80.6522 83.1612L76.8988 88H83.0227V85ZM102.113 60.39L104.483 62.2288L107.806 57.9444L102.411 57.4049L102.113 60.39ZM105.793 6.58C122.448 6.58 135.223 18.351 135.223 32.1H141.223C141.223 14.339 125.017 0.579999 105.793 0.579999V6.58ZM135.223 32.1C135.223 36.847 133.712 41.3239 131.032 45.2409L135.984 48.6291C139.284 43.806 141.223 38.163 141.223 32.1H135.223ZM131.075 45.1788L103.59 83.2438L108.455 86.7562L135.94 48.6912L131.075 45.1788ZM106.023 82H83.0227V88H106.023V82ZM85.3931 86.8388L104.483 62.2288L99.7422 58.5512L80.6522 83.1612L85.3931 86.8388ZM102.411 57.4049C87.5139 55.9152 76.4777 44.8525 76.4777 32.1H70.4777C70.4777 48.5575 84.5114 61.6448 101.814 63.3751L102.411 57.4049ZM76.4777 32.1C76.4777 18.3446 89.2597 6.58 105.793 6.58V0.579999C86.6757 0.579999 70.4777 14.3454 70.4777 32.1H76.4777ZM105.793 46.945C114.523 46.945 122.363 40.6865 122.363 32.1H116.363C116.363 36.6235 112.012 40.945 105.793 40.945V46.945ZM122.363 32.1C122.363 23.5483 114.563 17.14 105.793 17.14V23.14C111.972 23.14 116.363 27.5417 116.363 32.1H122.363ZM105.793 17.14C96.9874 17.14 89.3377 23.5794 89.3377 32.1H95.3377C95.3377 27.5106 99.6479 23.14 105.793 23.14V17.14ZM89.3377 32.1C89.3377 40.6558 97.027 46.945 105.793 46.945V40.945C99.6083 40.945 95.3377 36.6542 95.3377 32.1H89.3377ZM256.24 33.25L258.862 31.7931L256.24 27.0726L253.617 31.7931L256.24 33.25ZM268.775 45.67L270.207 48.3059L275.057 45.67L270.207 43.0341L268.775 45.67ZM256.24 58.205L253.604 59.6375L256.24 64.4875L258.875 59.6375L256.24 58.205ZM243.82 45.67L242.387 43.0341L237.537 45.67L242.387 48.3059L243.82 45.67ZM240.83 63.265L242.951 61.1437L241.102 59.2949L239.018 60.8737L240.83 63.265ZM254.285 76.72L256.24 78.9953L258.694 76.8865L256.406 74.5987L254.285 76.72ZM254.285 13.585L256.397 15.7154L258.704 13.4276L256.24 11.3097L254.285 13.585ZM240.83 26.925L239.018 29.3163L241.093 30.8883L242.942 29.0554L240.83 26.925ZM253.617 34.7069C256.766 40.3754 261.547 45.1564 267.342 48.3059L270.207 43.0341C265.422 40.4336 261.463 36.4745 258.862 31.7931L253.617 34.7069ZM267.342 43.0341C261.543 46.1857 256.755 50.9736 253.604 56.7725L258.875 59.6375C261.474 54.8564 265.426 50.9043 270.207 48.3059L267.342 43.0341ZM258.875 56.7725C255.738 50.999 251.076 46.1992 245.252 43.0341L242.387 48.3059C247.143 50.8908 250.991 54.831 253.604 59.6375L258.875 56.7725ZM245.252 48.3059C251.072 45.143 255.727 40.3501 258.862 34.7069L253.617 31.7931C251.002 36.4999 247.147 40.447 242.387 43.0341L245.252 48.3059ZM227.03 70.865C232.872 70.865 238.335 68.9182 242.641 65.6563L239.018 60.8737C235.734 63.3618 231.537 64.865 227.03 64.865V70.865ZM238.708 65.3863L252.163 78.8413L256.406 74.5987L242.951 61.1437L238.708 65.3863ZM252.329 74.4447C245.489 80.3234 236.745 83.84 227.03 83.84V89.84C238.244 89.84 248.361 85.7666 256.24 78.9953L252.329 74.4447ZM227.03 83.84C205.697 83.84 188.4 66.4489 188.4 45.095H182.4C182.4 69.7411 202.362 89.84 227.03 89.84V83.84ZM188.4 45.095C188.4 23.7518 205.686 6.46499 227.03 6.46499V0.464994C202.373 0.464994 182.4 20.4381 182.4 45.095H188.4ZM227.03 6.46499C236.745 6.46499 245.489 9.98155 252.329 15.8603L256.24 11.3097C248.361 4.53843 238.244 0.464994 227.03 0.464994V6.46499ZM252.172 11.4546L238.717 24.7946L242.942 29.0554L256.397 15.7154L252.172 11.4546ZM242.641 24.5337C238.335 21.2718 232.872 19.325 227.03 19.325V25.325C231.537 25.325 235.734 26.8282 239.018 29.3163L242.641 24.5337ZM227.03 19.325C212.838 19.325 201.26 30.9031 201.26 45.095H207.26C207.26 34.2169 216.151 25.325 227.03 25.325V19.325ZM201.26 45.095C201.26 59.4117 212.848 70.865 227.03 70.865V64.865C216.142 64.865 207.26 56.0783 207.26 45.095H201.26ZM309.624 32.675L312.246 31.2181L309.624 26.4976L307.001 31.2181L309.624 32.675ZM322.044 45.095L323.476 47.7309L328.326 45.095L323.476 42.4591L322.044 45.095ZM309.624 57.63L306.988 59.0625L309.624 63.9126L312.26 59.0625L309.624 57.63ZM297.089 45.095L295.656 42.4591L290.806 45.095L295.656 47.7309L297.089 45.095ZM293.294 85V88H296.294V85H293.294ZM274.089 85H271.089V88H274.089V85ZM274.089 5.19V2.19H271.089V5.19H274.089ZM293.294 5.19H296.294V2.19H293.294V5.19ZM345.159 85V88H348.159V85H345.159ZM325.839 85H322.839V88H325.839V85ZM325.839 5.19V2.19H322.839V5.19H325.839ZM345.159 5.19H348.159V2.19H345.159V5.19ZM307.001 34.1319C310.137 39.7751 314.792 44.568 320.611 47.7309L323.476 42.4591C318.716 39.872 314.861 35.9249 312.246 31.2181L307.001 34.1319ZM320.611 42.4591C314.788 45.6242 310.126 50.424 306.988 56.1975L312.26 59.0625C314.872 54.256 318.72 50.3158 323.476 47.7309L320.611 42.4591ZM312.26 56.1975C309.108 50.3986 304.32 45.6107 298.521 42.4591L295.656 47.7309C300.437 50.3293 304.39 54.2814 306.988 59.0625L312.26 56.1975ZM298.521 47.7309C304.316 44.5814 309.097 39.8004 312.246 34.1319L307.001 31.2181C304.401 35.8995 300.441 39.8586 295.656 42.4591L298.521 47.7309ZM293.294 82H274.089V88H293.294V82ZM277.089 85V5.19H271.089V85H277.089ZM274.089 8.19H293.294V2.19H274.089V8.19ZM290.294 5.19V85H296.294V5.19H290.294ZM345.159 82H325.839V88H345.159V82ZM328.839 85V5.19H322.839V85H328.839ZM325.839 8.19H345.159V2.19H325.839V8.19ZM342.159 5.19V85H348.159V5.19H342.159ZM407.92 45.095L409.377 47.7175L414.098 45.095L409.377 42.4725L407.92 45.095ZM395.5 57.63L392.864 59.0625L395.5 63.9125L398.136 59.0625L395.5 57.63ZM382.965 45.095L381.533 42.4591L376.683 45.095L381.533 47.7309L382.965 45.095ZM395.5 32.675L398.123 31.2181L395.5 26.4976L392.878 31.2181L395.5 32.675ZM409.645 5.19H412.645V2.19H409.645V5.19ZM409.645 21.06V24.06H412.645V21.06H409.645ZM375.145 21.06V18.06H372.145V21.06H375.145ZM375.145 69.13H372.145V72.13H375.145V69.13ZM409.645 69.13H412.645V66.13H409.645V69.13ZM409.645 85V88H412.645V85H409.645ZM356.745 85H353.745V88H356.745V85ZM356.745 5.19V2.19H353.745V5.19H356.745ZM406.463 42.4725C400.795 45.6217 396.014 50.4025 392.864 56.1975L398.136 59.0625C400.737 54.2775 404.696 50.3183 409.377 47.7175L406.463 42.4725ZM398.136 56.1975C394.984 50.3986 390.197 45.6107 384.398 42.4591L381.533 47.7309C386.314 50.3293 390.266 54.2814 392.864 59.0625L398.136 56.1975ZM384.398 47.7309C390.193 44.5814 394.973 39.8004 398.123 34.1319L392.878 31.2181C390.277 35.8995 386.318 39.8586 381.533 42.4591L384.398 47.7309ZM392.878 34.1319C396.025 39.7966 400.798 44.5704 406.463 47.7175L409.377 42.4725C404.692 39.8696 400.726 35.9033 398.123 31.2181L392.878 34.1319ZM406.645 5.19V21.06H412.645V5.19H406.645ZM409.645 18.06H375.145V24.06H409.645V18.06ZM372.145 21.06V69.13H378.145V21.06H372.145ZM375.145 72.13H409.645V66.13H375.145V72.13ZM406.645 69.13V85H412.645V69.13H406.645ZM409.645 82H356.745V88H409.645V82ZM359.745 85V5.19H353.745V85H359.745ZM356.745 8.19H409.645V2.19H356.745V8.19ZM454.385 60.045L457.02 58.6125L454.385 53.7625L451.749 58.6125L454.385 60.045ZM466.805 72.465L468.237 75.1009L473.087 72.465L468.237 69.8291L466.805 72.465ZM454.385 85L451.749 86.4325L454.385 91.2825L457.02 86.4325L454.385 85ZM441.85 72.465L440.417 69.8291L435.567 72.465L440.417 75.1009L441.85 72.465ZM454.27 0.244995L456.957 -1.08935L454.262 -6.51472L451.58 -1.08349L454.27 0.244995ZM496.36 85V88H501.199L499.047 83.6657L496.36 85ZM477.845 85L475.126 86.2693L475.935 88H477.845V85ZM454.27 34.515L456.988 33.2457L454.256 27.3961L451.547 33.2559L454.27 34.515ZM430.925 85V88H432.843L433.648 86.2591L430.925 85ZM412.41 85L409.72 83.6715L407.582 88H412.41V85ZM451.749 61.4775C454.9 67.2764 459.573 71.9493 465.372 75.1009L468.237 69.8291C463.456 67.2307 459.619 63.3936 457.02 58.6125L451.749 61.4775ZM465.372 69.8291C459.548 72.9942 454.886 77.794 451.749 83.5675L457.02 86.4325C459.633 81.626 463.481 77.6858 468.237 75.1009L465.372 69.8291ZM457.02 83.5675C453.869 77.7686 449.081 72.9807 443.282 69.8291L440.417 75.1009C445.198 77.6993 449.15 81.6514 451.749 86.4325L457.02 83.5675ZM443.282 75.1009C449.056 71.9631 453.855 67.3012 457.02 61.4775L451.749 58.6125C449.164 63.3688 445.224 67.2169 440.417 69.8291L443.282 75.1009ZM451.583 1.57934L493.673 86.3343L499.047 83.6657L456.957 -1.08935L451.583 1.57934ZM496.36 82H477.845V88H496.36V82ZM480.563 83.7307L456.988 33.2457L451.551 35.7843L475.126 86.2693L480.563 83.7307ZM451.547 33.2559L428.202 83.7409L433.648 86.2591L456.993 35.7741L451.547 33.2559ZM430.925 82H412.41V88H430.925V82ZM415.099 86.3285L456.959 1.57348L451.58 -1.08349L409.72 83.6715L415.099 86.3285ZM485.769 5.19V2.19H482.769V5.19H485.769ZM548.789 5.19H551.789V2.19H548.789V5.19ZM548.789 22.44V25.44H551.789V22.44H548.789ZM526.824 22.44V19.44H523.824V22.44H526.824ZM526.824 85V88H529.824V85H526.824ZM507.619 85H504.619V88H507.619V85ZM507.619 22.44H510.619V19.44H507.619V22.44ZM485.769 22.44H482.769V25.44H485.769V22.44ZM485.769 8.19H548.789V2.19H485.769V8.19ZM545.789 5.19V22.44H551.789V5.19H545.789ZM548.789 19.44H526.824V25.44H548.789V19.44ZM523.824 22.44V85H529.824V22.44H523.824ZM526.824 82H507.619V88H526.824V82ZM510.619 85V22.44H504.619V85H510.619ZM507.619 19.44H485.769V25.44H507.619V19.44ZM488.769 22.44V5.19H482.769V22.44H488.769Z" fill="white" fill-opacity="0.03" mask="url(#path-1-outside-1_1055_719)"/>
</svg>
