<svg width="28" height="28" viewBox="0 0 28 28" fill="none" xmlns="http://www.w3.org/2000/svg">
<path d="M13.9998 27.3334C6.63584 27.3334 0.666504 21.364 0.666504 14C0.666504 6.63602 6.63584 0.666687 13.9998 0.666687C21.3638 0.666687 27.3332 6.63602 27.3332 14C27.3332 21.364 21.3638 27.3334 13.9998 27.3334ZM12.1625 9.22002C12.0823 9.16648 11.989 9.13571 11.8926 9.13098C11.7963 9.12625 11.7005 9.14774 11.6154 9.19317C11.5303 9.23859 11.4591 9.30625 11.4094 9.38893C11.3597 9.47161 11.3333 9.56622 11.3332 9.66269V18.3374C11.3333 18.4338 11.3597 18.5284 11.4094 18.6111C11.4591 18.6938 11.5303 18.7614 11.6154 18.8069C11.7005 18.8523 11.7963 18.8738 11.8926 18.8691C11.989 18.8643 12.0823 18.8336 12.1625 18.78L18.6678 14.444C18.7407 14.3951 18.8004 14.3291 18.8417 14.2516C18.883 14.1742 18.9046 14.0878 18.9046 14C18.9046 13.9123 18.883 13.8259 18.8417 13.7484C18.8004 13.671 18.7407 13.6049 18.6678 13.556L12.1625 9.22002Z" fill="#590078"/>
</svg>
