<svg width="85" height="112" viewBox="0 0 85 112" fill="none" xmlns="http://www.w3.org/2000/svg">
<path d="M63.4 54.72C69.6933 55.8933 74.8667 59.04 78.92 64.16C82.9733 69.28 85 75.1467 85 81.76C85 87.7333 83.5067 93.0133 80.52 97.6C77.64 102.08 73.4267 105.6 67.88 108.16C62.3333 110.72 55.7733 112 48.2 112H0.0400009V0.319998H46.12C53.6933 0.319998 60.2 1.54666 65.64 4C71.1867 6.45333 75.3467 9.86667 78.12 14.24C81 18.6133 82.44 23.5733 82.44 29.12C82.44 35.6267 80.68 41.0667 77.16 45.44C73.7467 49.8133 69.16 52.9067 63.4 54.72ZM22.44 46.4H42.92C48.2533 46.4 52.36 45.2267 55.24 42.88C58.12 40.4267 59.56 36.96 59.56 32.48C59.56 28 58.12 24.5333 55.24 22.08C52.36 19.6267 48.2533 18.4 42.92 18.4H22.44V46.4ZM45 93.76C50.44 93.76 54.6533 92.48 57.64 89.92C60.7333 87.36 62.28 83.7333 62.28 79.04C62.28 74.24 60.68 70.5067 57.48 67.84C54.28 65.0667 49.96 63.68 44.52 63.68H22.44V93.76H45Z" fill="#590078"/>
</svg>
