<svg width="18" height="18" viewBox="0 0 18 18" fill="none" xmlns="http://www.w3.org/2000/svg">
<path d="M9.8565 0.667499C10.4646 0.665165 11.0727 0.671277 11.6807 0.685832L11.8423 0.691665C12.029 0.698332 12.2132 0.706665 12.4357 0.716665C13.3223 0.758332 13.9273 0.898332 14.4582 1.10417C15.0082 1.31583 15.4715 1.6025 15.9348 2.06583C16.3585 2.48217 16.6864 2.98579 16.8957 3.54167C17.1015 4.0725 17.2415 4.67833 17.2832 5.565C17.2932 5.78667 17.3015 5.97167 17.3082 6.15833L17.3132 6.32C17.328 6.92766 17.3344 7.5355 17.3323 8.14333L17.3332 8.765V9.85667C17.3352 10.4648 17.3288 11.0729 17.314 11.6808L17.309 11.8425C17.3023 12.0292 17.294 12.2133 17.284 12.4358C17.2423 13.3225 17.1007 13.9275 16.8957 14.4583C16.687 15.0148 16.3591 15.5188 15.9348 15.935C15.5181 16.3586 15.0143 16.6865 14.4582 16.8958C13.9273 17.1017 13.3223 17.2417 12.4357 17.2833C12.2132 17.2933 12.029 17.3017 11.8423 17.3083L11.6807 17.3133C11.0727 17.3281 10.4646 17.3345 9.8565 17.3325L9.23483 17.3333H8.144C7.53588 17.3354 6.92777 17.329 6.31983 17.3142L6.15816 17.3092C5.96034 17.302 5.76256 17.2937 5.56483 17.2842C4.67816 17.2425 4.07316 17.1008 3.5415 16.8958C2.9854 16.687 2.48169 16.359 2.06566 15.935C1.64153 15.5186 1.31335 15.0146 1.104 14.4583C0.898163 13.9275 0.758163 13.3225 0.716496 12.4358C0.707216 12.2381 0.698882 12.0403 0.691496 11.8425L0.68733 11.6808C0.671966 11.0729 0.665021 10.4648 0.666496 9.85667V8.14333C0.664171 7.5355 0.670282 6.92766 0.68483 6.32L0.690663 6.15833C0.69733 5.97167 0.705663 5.78667 0.715663 5.565C0.75733 4.6775 0.89733 4.07333 1.10316 3.54167C1.31264 2.98552 1.64147 2.48204 2.0665 2.06667C2.48224 1.64229 2.98563 1.31381 3.5415 1.10417C4.07316 0.898332 4.67733 0.758332 5.56483 0.716665L6.15816 0.691665L6.31983 0.687499C6.92748 0.672143 7.53532 0.665198 8.14316 0.666665L9.8565 0.667499ZM8.99983 4.83417C8.44775 4.82636 7.89963 4.92835 7.38731 5.13422C6.87499 5.34009 6.4087 5.64573 6.01553 6.03338C5.62237 6.42102 5.31016 6.88295 5.09707 7.3923C4.88398 7.90166 4.77424 8.44828 4.77424 9.00042C4.77424 9.55255 4.88398 10.0992 5.09707 10.6085C5.31016 11.1179 5.62237 11.5798 6.01553 11.9675C6.4087 12.3551 6.87499 12.6607 7.38731 12.8666C7.89963 13.0725 8.44775 13.1745 8.99983 13.1667C10.1049 13.1667 11.1647 12.7277 11.9461 11.9463C12.7275 11.1649 13.1665 10.1051 13.1665 9C13.1665 7.89493 12.7275 6.83512 11.9461 6.05372C11.1647 5.27232 10.1049 4.83417 8.99983 4.83417ZM8.99983 6.50083C9.33192 6.49471 9.6619 6.55483 9.97049 6.67767C10.2791 6.80051 10.5601 6.98362 10.7971 7.21629C11.0342 7.44896 11.2225 7.72653 11.351 8.03278C11.4796 8.33904 11.5458 8.66785 11.5459 8.99999C11.5459 9.33214 11.4798 9.66096 11.3514 9.96726C11.2229 10.2736 11.0347 10.5512 10.7977 10.7839C10.5608 11.0167 10.2798 11.1999 9.97127 11.3228C9.66271 11.4458 9.33276 11.506 9.00066 11.5C8.33762 11.5 7.70174 11.2366 7.2329 10.7678C6.76406 10.2989 6.50066 9.66304 6.50066 9C6.50066 8.33696 6.76406 7.70107 7.2329 7.23223C7.70174 6.76339 8.33762 6.5 9.00066 6.5L8.99983 6.50083ZM13.3748 3.58417C13.106 3.59493 12.8517 3.70929 12.6653 3.90331C12.4789 4.09733 12.3748 4.35594 12.3748 4.625C12.3748 4.89405 12.4789 5.15267 12.6653 5.34669C12.8517 5.54071 13.106 5.65507 13.3748 5.66583C13.6511 5.66583 13.9161 5.55609 14.1114 5.36073C14.3068 5.16538 14.4165 4.90043 14.4165 4.62417C14.4165 4.3479 14.3068 4.08295 14.1114 3.8876C13.9161 3.69225 13.6511 3.5825 13.3748 3.5825V3.58417Z" fill="white"/>
</svg>
