<svg width="34" height="15" viewBox="0 0 34 15" fill="none" xmlns="http://www.w3.org/2000/svg">
<path d="M9.52 0.0399997V9.84C9.52 11.2 9.12667 12.26 8.34 13.02C7.55333 13.7667 6.5 14.14 5.18 14.14C3.84667 14.14 2.76667 13.7533 1.94 12.98C1.12667 12.2067 0.72 11.1267 0.72 9.74H3.52C3.53333 10.34 3.67333 10.8067 3.94 11.14C4.22 11.4733 4.62 11.64 5.14 11.64C5.64667 11.64 6.03333 11.48 6.3 11.16C6.56667 10.84 6.7 10.4 6.7 9.84V0.0399997H9.52ZM20.7063 6.84C21.4929 6.98667 22.1396 7.38 22.6463 8.02C23.1529 8.66 23.4063 9.39333 23.4063 10.22C23.4063 10.9667 23.2196 11.6267 22.8463 12.2C22.4863 12.76 21.9596 13.2 21.2663 13.52C20.5729 13.84 19.7529 14 18.8063 14H12.7863V0.0399997H18.5463C19.4929 0.0399997 20.3063 0.193333 20.9863 0.5C21.6796 0.806666 22.1996 1.23333 22.5463 1.78C22.9063 2.32667 23.0863 2.94667 23.0863 3.64C23.0863 4.45333 22.8663 5.13333 22.4262 5.68C21.9996 6.22667 21.4263 6.61333 20.7063 6.84ZM15.5863 5.8H18.1463C18.8129 5.8 19.3263 5.65333 19.6863 5.36C20.0463 5.05333 20.2263 4.62 20.2263 4.06C20.2263 3.5 20.0463 3.06667 19.6863 2.76C19.3263 2.45333 18.8129 2.3 18.1463 2.3H15.5863V5.8ZM18.4063 11.72C19.0863 11.72 19.6129 11.56 19.9863 11.24C20.3729 10.92 20.5663 10.4667 20.5663 9.88C20.5663 9.28 20.3663 8.81333 19.9663 8.48C19.5663 8.13333 19.0263 7.96 18.3463 7.96H15.5863V11.72H18.4063ZM28.4378 11.78H33.0378V14H25.6378V0.0399997H28.4378V11.78Z" fill="#590078"/>
</svg>
