<svg width="252" height="88" viewBox="0 0 252 88" fill="none" xmlns="http://www.w3.org/2000/svg">
<line x1="235.213" y1="64.866" x2="200.572" y2="44.866" stroke="#7D7978" stroke-width="2"/>
<line x1="201" y1="44.9999" x2="169" y2="44.9999" stroke="#7D7978" stroke-width="2"/>
<circle cx="242" cy="70.9999" r="10" fill="#7D7A78"/>
<circle cx="242" cy="70.9999" r="6" fill="white"/>
<g filter="url(#filter0_d_1055_743)">
<rect x="24" y="24" width="146" height="40" rx="20" fill="url(#paint0_linear_1055_743)"/>
<path d="M51.7301 44.288C52.3275 44.3947 52.8341 44.7093 53.2501 45.232C53.6661 45.7547 53.8741 46.3467 53.8741 47.008C53.8741 47.5733 53.7248 48.0853 53.4261 48.544C53.1381 48.992 52.7168 49.3493 52.1621 49.616C51.6075 49.872 50.9621 50 50.2261 50H45.7781V38.88H50.0181C50.7755 38.88 51.4261 39.008 51.9701 39.264C52.5141 39.52 52.9248 39.8667 53.2021 40.304C53.4795 40.7307 53.6181 41.2107 53.6181 41.744C53.6181 42.384 53.4475 42.9173 53.1061 43.344C52.7648 43.7707 52.3061 44.0853 51.7301 44.288ZM47.6021 43.552H49.8581C50.4555 43.552 50.9195 43.4187 51.2501 43.152C51.5915 42.8747 51.7621 42.48 51.7621 41.968C51.7621 41.4667 51.5915 41.0773 51.2501 40.8C50.9195 40.512 50.4555 40.368 49.8581 40.368H47.6021V43.552ZM50.0661 48.512C50.6848 48.512 51.1701 48.3627 51.5221 48.064C51.8741 47.7653 52.0501 47.3493 52.0501 46.816C52.0501 46.272 51.8635 45.84 51.4901 45.52C51.1168 45.2 50.6208 45.04 50.0021 45.04H47.6021V48.512H50.0661ZM63.9363 45.376C63.9363 45.7067 63.9149 46.0053 63.8723 46.272H57.1363C57.1896 46.976 57.4509 47.5413 57.9203 47.968C58.3896 48.3947 58.9656 48.608 59.6483 48.608C60.6296 48.608 61.3229 48.1973 61.7283 47.376H63.6962C63.4296 48.1867 62.9443 48.8533 62.2403 49.376C61.5469 49.888 60.6829 50.144 59.6483 50.144C58.8056 50.144 58.0483 49.9573 57.3763 49.584C56.7149 49.2 56.1923 48.6667 55.8083 47.984C55.4349 47.2907 55.2483 46.4907 55.2483 45.584C55.2483 44.6773 55.4296 43.8827 55.7923 43.2C56.1656 42.5067 56.6829 41.9733 57.3443 41.6C58.0163 41.2267 58.7843 41.04 59.6483 41.04C60.4803 41.04 61.2216 41.2213 61.8723 41.584C62.5229 41.9467 63.0296 42.4587 63.3923 43.12C63.7549 43.7707 63.9363 44.5227 63.9363 45.376ZM62.0323 44.8C62.0216 44.128 61.7816 43.5893 61.3123 43.184C60.8429 42.7787 60.2616 42.576 59.5683 42.576C58.9389 42.576 58.4003 42.7787 57.9523 43.184C57.5043 43.5787 57.2376 44.1173 57.1523 44.8H62.0323ZM68.9313 50.144C68.2379 50.144 67.6139 50.0213 67.0593 49.776C66.5153 49.52 66.0833 49.1787 65.7633 48.752C65.4433 48.3147 65.2726 47.8293 65.2513 47.296H67.1393C67.1713 47.6693 67.3473 47.984 67.6673 48.24C67.9979 48.4853 68.4086 48.608 68.8993 48.608C69.4113 48.608 69.8059 48.512 70.0833 48.32C70.3713 48.1173 70.5153 47.8613 70.5153 47.552C70.5153 47.2213 70.3553 46.976 70.0353 46.816C69.7259 46.656 69.2299 46.48 68.5473 46.288C67.8859 46.1067 67.3473 45.9307 66.9313 45.76C66.5153 45.5893 66.1526 45.328 65.8433 44.976C65.5446 44.624 65.3953 44.16 65.3953 43.584C65.3953 43.1147 65.5339 42.688 65.8113 42.304C66.0886 41.9093 66.4833 41.6 66.9953 41.376C67.5179 41.152 68.1153 41.04 68.7873 41.04C69.7899 41.04 70.5953 41.296 71.2033 41.808C71.8219 42.3093 72.1526 42.9973 72.1953 43.872H70.3713C70.3393 43.4773 70.1793 43.1627 69.8913 42.928C69.6033 42.6933 69.2139 42.576 68.7233 42.576C68.2433 42.576 67.8753 42.6667 67.6193 42.848C67.3633 43.0293 67.2353 43.2693 67.2353 43.568C67.2353 43.8027 67.3206 44 67.4913 44.16C67.6619 44.32 67.8699 44.448 68.1153 44.544C68.3606 44.6293 68.7233 44.7413 69.2033 44.88C69.8433 45.0507 70.3659 45.2267 70.7713 45.408C71.1873 45.5787 71.5446 45.8347 71.8433 46.176C72.1419 46.5173 72.2966 46.9707 72.3073 47.536C72.3073 48.0373 72.1686 48.4853 71.8913 48.88C71.6139 49.2747 71.2193 49.584 70.7073 49.808C70.2059 50.032 69.6139 50.144 68.9313 50.144ZM76.4061 42.672V47.552C76.4061 47.8827 76.4808 48.1227 76.6301 48.272C76.7901 48.4107 77.0568 48.48 77.4301 48.48H78.5501V50H77.1101C76.2888 50 75.6595 49.808 75.2221 49.424C74.7848 49.04 74.5661 48.416 74.5661 47.552V42.672H73.5261V41.184H74.5661V38.992H76.4061V41.184H78.5501V42.672H76.4061ZM83.7795 44.416C83.7795 43.328 84.0302 42.352 84.5315 41.488C85.0435 40.624 85.7315 39.952 86.5955 39.472C87.4702 38.9813 88.4248 38.736 89.4595 38.736C90.6435 38.736 91.6942 39.0293 92.6115 39.616C93.5395 40.192 94.2115 41.0133 94.6275 42.08H92.4355C92.1475 41.4933 91.7475 41.056 91.2355 40.768C90.7235 40.48 90.1315 40.336 89.4595 40.336C88.7235 40.336 88.0675 40.5013 87.4915 40.832C86.9155 41.1627 86.4622 41.6373 86.1315 42.256C85.8115 42.8747 85.6515 43.5947 85.6515 44.416C85.6515 45.2373 85.8115 45.9573 86.1315 46.576C86.4622 47.1947 86.9155 47.6747 87.4915 48.016C88.0675 48.3467 88.7235 48.512 89.4595 48.512C90.1315 48.512 90.7235 48.368 91.2355 48.08C91.7475 47.792 92.1475 47.3547 92.4355 46.768H94.6275C94.2115 47.8347 93.5395 48.656 92.6115 49.232C91.6942 49.808 90.6435 50.096 89.4595 50.096C88.4142 50.096 87.4595 49.856 86.5955 49.376C85.7315 48.8853 85.0435 48.208 84.5315 47.344C84.0302 46.48 83.7795 45.504 83.7795 44.416ZM100.587 50.144C99.7545 50.144 99.0025 49.9573 98.3305 49.584C97.6585 49.2 97.1305 48.6667 96.7465 47.984C96.3625 47.2907 96.1705 46.4907 96.1705 45.584C96.1705 44.688 96.3678 43.8933 96.7625 43.2C97.1572 42.5067 97.6958 41.9733 98.3785 41.6C99.0612 41.2267 99.8238 41.04 100.667 41.04C101.509 41.04 102.272 41.2267 102.955 41.6C103.637 41.9733 104.176 42.5067 104.571 43.2C104.965 43.8933 105.163 44.688 105.163 45.584C105.163 46.48 104.96 47.2747 104.555 47.968C104.149 48.6613 103.595 49.2 102.891 49.584C102.197 49.9573 101.429 50.144 100.587 50.144ZM100.587 48.56C101.056 48.56 101.493 48.448 101.899 48.224C102.315 48 102.651 47.664 102.907 47.216C103.163 46.768 103.291 46.224 103.291 45.584C103.291 44.944 103.168 44.4053 102.923 43.968C102.677 43.52 102.352 43.184 101.947 42.96C101.541 42.736 101.104 42.624 100.635 42.624C100.165 42.624 99.7278 42.736 99.3225 42.96C98.9278 43.184 98.6132 43.52 98.3785 43.968C98.1438 44.4053 98.0265 44.944 98.0265 45.584C98.0265 46.5333 98.2665 47.2693 98.7465 47.792C99.2372 48.304 99.8505 48.56 100.587 48.56ZM117.638 41.04C118.331 41.04 118.95 41.184 119.494 41.472C120.048 41.76 120.48 42.1867 120.79 42.752C121.11 43.3173 121.27 44 121.27 44.8V50H119.462V45.072C119.462 44.2827 119.264 43.68 118.87 43.264C118.475 42.8373 117.936 42.624 117.254 42.624C116.571 42.624 116.027 42.8373 115.622 43.264C115.227 43.68 115.03 44.2827 115.03 45.072V50H113.222V45.072C113.222 44.2827 113.024 43.68 112.63 43.264C112.235 42.8373 111.696 42.624 111.014 42.624C110.331 42.624 109.787 42.8373 109.382 43.264C108.987 43.68 108.79 44.2827 108.79 45.072V50H106.966V41.184H108.79V42.192C109.088 41.8293 109.467 41.5467 109.926 41.344C110.384 41.1413 110.875 41.04 111.398 41.04C112.102 41.04 112.731 41.1893 113.286 41.488C113.84 41.7867 114.267 42.2187 114.566 42.784C114.832 42.2507 115.248 41.8293 115.814 41.52C116.379 41.2 116.987 41.04 117.638 41.04ZM127.287 42.672H125.655V50H123.815V42.672H122.775V41.184H123.815V40.56C123.815 39.5467 124.081 38.8107 124.615 38.352C125.159 37.8827 126.007 37.648 127.159 37.648V39.168C126.604 39.168 126.215 39.2747 125.991 39.488C125.767 39.6907 125.655 40.048 125.655 40.56V41.184H127.287V42.672ZM132.727 50.144C131.895 50.144 131.143 49.9573 130.471 49.584C129.799 49.2 129.271 48.6667 128.887 47.984C128.503 47.2907 128.311 46.4907 128.311 45.584C128.311 44.688 128.508 43.8933 128.903 43.2C129.298 42.5067 129.836 41.9733 130.519 41.6C131.202 41.2267 131.964 41.04 132.807 41.04C133.65 41.04 134.412 41.2267 135.095 41.6C135.778 41.9733 136.316 42.5067 136.711 43.2C137.106 43.8933 137.303 44.688 137.303 45.584C137.303 46.48 137.1 47.2747 136.695 47.968C136.29 48.6613 135.735 49.2 135.031 49.584C134.338 49.9573 133.57 50.144 132.727 50.144ZM132.727 48.56C133.196 48.56 133.634 48.448 134.039 48.224C134.455 48 134.791 47.664 135.047 47.216C135.303 46.768 135.431 46.224 135.431 45.584C135.431 44.944 135.308 44.4053 135.063 43.968C134.818 43.52 134.492 43.184 134.087 42.96C133.682 42.736 133.244 42.624 132.775 42.624C132.306 42.624 131.868 42.736 131.463 42.96C131.068 43.184 130.754 43.52 130.519 43.968C130.284 44.4053 130.167 44.944 130.167 45.584C130.167 46.5333 130.407 47.2693 130.887 47.792C131.378 48.304 131.991 48.56 132.727 48.56ZM140.93 42.464C141.197 42.016 141.549 41.6693 141.986 41.424C142.434 41.168 142.962 41.04 143.57 41.04V42.928H143.106C142.392 42.928 141.848 43.1093 141.474 43.472C141.112 43.8347 140.93 44.464 140.93 45.36V50H139.106V41.184H140.93V42.464ZM147.375 42.672V47.552C147.375 47.8827 147.45 48.1227 147.599 48.272C147.759 48.4107 148.026 48.48 148.399 48.48H149.519V50H148.079C147.258 50 146.628 49.808 146.191 49.424C145.754 49.04 145.535 48.416 145.535 47.552V42.672H144.495V41.184H145.535V38.992H147.375V41.184H149.519V42.672H147.375Z" fill="white"/>
</g>
<defs>
<filter id="filter0_d_1055_743" x="0" y="0" width="194" height="88" filterUnits="userSpaceOnUse" color-interpolation-filters="sRGB">
<feFlood flood-opacity="0" result="BackgroundImageFix"/>
<feColorMatrix in="SourceAlpha" type="matrix" values="0 0 0 0 0 0 0 0 0 0 0 0 0 0 0 0 0 0 127 0" result="hardAlpha"/>
<feOffset/>
<feGaussianBlur stdDeviation="12"/>
<feComposite in2="hardAlpha" operator="out"/>
<feColorMatrix type="matrix" values="0 0 0 0 0 0 0 0 0 0 0 0 0 0 0 0 0 0 0.25 0"/>
<feBlend mode="normal" in2="BackgroundImageFix" result="effect1_dropShadow_1055_743"/>
<feBlend mode="normal" in="SourceGraphic" in2="effect1_dropShadow_1055_743" result="shape"/>
</filter>
<linearGradient id="paint0_linear_1055_743" x1="24" y1="44" x2="170" y2="44" gradientUnits="userSpaceOnUse">
<stop stop-color="#4A4745"/>
<stop offset="1" stop-color="#151414"/>
</linearGradient>
</defs>
</svg>
