<svg width="245" height="88" viewBox="0 0 245 88" fill="none" xmlns="http://www.w3.org/2000/svg">
<line x1="228.213" y1="64.866" x2="193.572" y2="44.866" stroke="#7D7978" stroke-width="2"/>
<line x1="194" y1="45" x2="162" y2="45" stroke="#7D7978" stroke-width="2"/>
<circle cx="235" cy="71" r="10" fill="#7D7A78"/>
<circle cx="235" cy="71" r="6" fill="white"/>
<g filter="url(#filter0_d_1055_761)">
<rect x="24" y="24" width="139" height="40" rx="20" fill="url(#paint0_linear_1055_761)"/>
<path d="M52.5409 38.88V40.368H47.8209V43.648H51.5009V45.136H47.8209V50H45.9969V38.88H52.5409ZM53.6233 45.552C53.6233 44.6667 53.8046 43.8827 54.1673 43.2C54.5406 42.5173 55.0419 41.9893 55.6713 41.616C56.3113 41.232 57.0153 41.04 57.7833 41.04C58.4766 41.04 59.0793 41.1787 59.5913 41.456C60.1139 41.7227 60.5299 42.0587 60.8393 42.464V41.184H62.6793V50H60.8393V48.688C60.5299 49.104 60.1086 49.4507 59.5753 49.728C59.0419 50.0053 58.4339 50.144 57.7513 50.144C56.9939 50.144 56.3006 49.952 55.6713 49.568C55.0419 49.1733 54.5406 48.6293 54.1673 47.936C53.8046 47.232 53.6233 46.4373 53.6233 45.552ZM60.8393 45.584C60.8393 44.976 60.7113 44.448 60.4553 44C60.2099 43.552 59.8846 43.2107 59.4793 42.976C59.0739 42.7413 58.6366 42.624 58.1673 42.624C57.6979 42.624 57.2606 42.7413 56.8553 42.976C56.4499 43.2 56.1193 43.536 55.8633 43.984C55.6179 44.4213 55.4953 44.944 55.4953 45.552C55.4953 46.16 55.6179 46.6933 55.8633 47.152C56.1193 47.6107 56.4499 47.9627 56.8553 48.208C57.2713 48.4427 57.7086 48.56 58.1673 48.56C58.6366 48.56 59.0739 48.4427 59.4793 48.208C59.8846 47.9733 60.2099 47.632 60.4553 47.184C60.7113 46.7253 60.8393 46.192 60.8393 45.584ZM68.275 50.144C67.5817 50.144 66.9577 50.0213 66.403 49.776C65.859 49.52 65.427 49.1787 65.107 48.752C64.787 48.3147 64.6163 47.8293 64.595 47.296H66.483C66.515 47.6693 66.691 47.984 67.011 48.24C67.3417 48.4853 67.7523 48.608 68.243 48.608C68.755 48.608 69.1497 48.512 69.427 48.32C69.715 48.1173 69.859 47.8613 69.859 47.552C69.859 47.2213 69.699 46.976 69.379 46.816C69.0697 46.656 68.5737 46.48 67.891 46.288C67.2297 46.1067 66.691 45.9307 66.275 45.76C65.859 45.5893 65.4963 45.328 65.187 44.976C64.8883 44.624 64.739 44.16 64.739 43.584C64.739 43.1147 64.8777 42.688 65.155 42.304C65.4323 41.9093 65.827 41.6 66.339 41.376C66.8617 41.152 67.459 41.04 68.131 41.04C69.1337 41.04 69.939 41.296 70.547 41.808C71.1657 42.3093 71.4963 42.9973 71.539 43.872H69.715C69.683 43.4773 69.523 43.1627 69.235 42.928C68.947 42.6933 68.5577 42.576 68.067 42.576C67.587 42.576 67.219 42.6667 66.963 42.848C66.707 43.0293 66.579 43.2693 66.579 43.568C66.579 43.8027 66.6643 44 66.835 44.16C67.0057 44.32 67.2137 44.448 67.459 44.544C67.7043 44.6293 68.067 44.7413 68.547 44.88C69.187 45.0507 69.7097 45.2267 70.115 45.408C70.531 45.5787 70.8883 45.8347 71.187 46.176C71.4857 46.5173 71.6403 46.9707 71.651 47.536C71.651 48.0373 71.5123 48.4853 71.235 48.88C70.9577 49.2747 70.563 49.584 70.051 49.808C69.5497 50.032 68.9577 50.144 68.275 50.144ZM75.7499 42.672V47.552C75.7499 47.8827 75.8245 48.1227 75.9739 48.272C76.1339 48.4107 76.4005 48.48 76.7739 48.48H77.8939V50H76.4539C75.6325 50 75.0032 49.808 74.5659 49.424C74.1285 49.04 73.9099 48.416 73.9099 47.552V42.672H72.8699V41.184H73.9099V38.992H75.7499V41.184H77.8939V42.672H75.7499ZM83.1233 44.416C83.1233 43.328 83.3739 42.352 83.8753 41.488C84.3873 40.624 85.0753 39.952 85.9393 39.472C86.8139 38.9813 87.7686 38.736 88.8033 38.736C89.9873 38.736 91.0379 39.0293 91.9553 39.616C92.8833 40.192 93.5553 41.0133 93.9713 42.08H91.7793C91.4913 41.4933 91.0913 41.056 90.5793 40.768C90.0673 40.48 89.4753 40.336 88.8033 40.336C88.0673 40.336 87.4113 40.5013 86.8353 40.832C86.2593 41.1627 85.8059 41.6373 85.4753 42.256C85.1553 42.8747 84.9953 43.5947 84.9953 44.416C84.9953 45.2373 85.1553 45.9573 85.4753 46.576C85.8059 47.1947 86.2593 47.6747 86.8353 48.016C87.4113 48.3467 88.0673 48.512 88.8033 48.512C89.4753 48.512 90.0673 48.368 90.5793 48.08C91.0913 47.792 91.4913 47.3547 91.7793 46.768H93.9713C93.5553 47.8347 92.8833 48.656 91.9553 49.232C91.0379 49.808 89.9873 50.096 88.8033 50.096C87.7579 50.096 86.8033 49.856 85.9393 49.376C85.0753 48.8853 84.3873 48.208 83.8753 47.344C83.3739 46.48 83.1233 45.504 83.1233 44.416ZM100.666 41.04C101.338 41.04 101.936 41.184 102.458 41.472C102.992 41.76 103.408 42.1867 103.706 42.752C104.016 43.3173 104.17 44 104.17 44.8V50H102.362V45.072C102.362 44.2827 102.165 43.68 101.77 43.264C101.376 42.8373 100.837 42.624 100.154 42.624C99.4716 42.624 98.9276 42.8373 98.5223 43.264C98.1276 43.68 97.9303 44.2827 97.9303 45.072V50H96.1063V38.16H97.9303V42.208C98.2396 41.8347 98.6289 41.5467 99.0983 41.344C99.5783 41.1413 100.101 41.04 100.666 41.04ZM105.889 45.552C105.889 44.6667 106.07 43.8827 106.433 43.2C106.806 42.5173 107.308 41.9893 107.937 41.616C108.577 41.232 109.281 41.04 110.049 41.04C110.742 41.04 111.345 41.1787 111.857 41.456C112.38 41.7227 112.796 42.0587 113.105 42.464V41.184H114.945V50H113.105V48.688C112.796 49.104 112.374 49.4507 111.841 49.728C111.308 50.0053 110.7 50.144 110.017 50.144C109.26 50.144 108.566 49.952 107.937 49.568C107.308 49.1733 106.806 48.6293 106.433 47.936C106.07 47.232 105.889 46.4373 105.889 45.552ZM113.105 45.584C113.105 44.976 112.977 44.448 112.721 44C112.476 43.552 112.15 43.2107 111.745 42.976C111.34 42.7413 110.902 42.624 110.433 42.624C109.964 42.624 109.526 42.7413 109.121 42.976C108.716 43.2 108.385 43.536 108.129 43.984C107.884 44.4213 107.761 44.944 107.761 45.552C107.761 46.16 107.884 46.6933 108.129 47.152C108.385 47.6107 108.716 47.9627 109.121 48.208C109.537 48.4427 109.974 48.56 110.433 48.56C110.902 48.56 111.34 48.4427 111.745 48.208C112.15 47.9733 112.476 47.632 112.721 47.184C112.977 46.7253 113.105 46.192 113.105 45.584ZM119.165 42.464C119.431 42.016 119.783 41.6693 120.221 41.424C120.669 41.168 121.197 41.04 121.805 41.04V42.928H121.341C120.626 42.928 120.082 43.1093 119.709 43.472C119.346 43.8347 119.165 44.464 119.165 45.36V50H117.341V41.184H119.165V42.464ZM127.033 41.04C127.716 41.04 128.319 41.1787 128.841 41.456C129.375 41.7227 129.791 42.0587 130.089 42.464V41.184H131.929V50.144C131.929 50.9547 131.759 51.6747 131.417 52.304C131.076 52.944 130.58 53.4453 129.929 53.808C129.289 54.1707 128.521 54.352 127.625 54.352C126.431 54.352 125.439 54.0693 124.649 53.504C123.86 52.9493 123.412 52.192 123.305 51.232H125.113C125.252 51.6907 125.545 52.0587 125.993 52.336C126.452 52.624 126.996 52.768 127.625 52.768C128.361 52.768 128.953 52.544 129.401 52.096C129.86 51.648 130.089 50.9973 130.089 50.144V48.672C129.78 49.088 129.359 49.44 128.825 49.728C128.303 50.0053 127.705 50.144 127.033 50.144C126.265 50.144 125.561 49.952 124.921 49.568C124.292 49.1733 123.791 48.6293 123.417 47.936C123.055 47.232 122.873 46.4373 122.873 45.552C122.873 44.6667 123.055 43.8827 123.417 43.2C123.791 42.5173 124.292 41.9893 124.921 41.616C125.561 41.232 126.265 41.04 127.033 41.04ZM130.089 45.584C130.089 44.976 129.961 44.448 129.705 44C129.46 43.552 129.135 43.2107 128.729 42.976C128.324 42.7413 127.887 42.624 127.417 42.624C126.948 42.624 126.511 42.7413 126.105 42.976C125.7 43.2 125.369 43.536 125.113 43.984C124.868 44.4213 124.745 44.944 124.745 45.552C124.745 46.16 124.868 46.6933 125.113 47.152C125.369 47.6107 125.7 47.9627 126.105 48.208C126.521 48.4427 126.959 48.56 127.417 48.56C127.887 48.56 128.324 48.4427 128.729 48.208C129.135 47.9733 129.46 47.632 129.705 47.184C129.961 46.7253 130.089 46.192 130.089 45.584ZM142.405 45.376C142.405 45.7067 142.384 46.0053 142.341 46.272H135.605C135.658 46.976 135.92 47.5413 136.389 47.968C136.858 48.3947 137.434 48.608 138.117 48.608C139.098 48.608 139.792 48.1973 140.197 47.376H142.165C141.898 48.1867 141.413 48.8533 140.709 49.376C140.016 49.888 139.152 50.144 138.117 50.144C137.274 50.144 136.517 49.9573 135.845 49.584C135.184 49.2 134.661 48.6667 134.277 47.984C133.904 47.2907 133.717 46.4907 133.717 45.584C133.717 44.6773 133.898 43.8827 134.261 43.2C134.634 42.5067 135.152 41.9733 135.813 41.6C136.485 41.2267 137.253 41.04 138.117 41.04C138.949 41.04 139.69 41.2213 140.341 41.584C140.992 41.9467 141.498 42.4587 141.861 43.12C142.224 43.7707 142.405 44.5227 142.405 45.376ZM140.501 44.8C140.49 44.128 140.25 43.5893 139.781 43.184C139.312 42.7787 138.73 42.576 138.037 42.576C137.408 42.576 136.869 42.7787 136.421 43.184C135.973 43.5787 135.706 44.1173 135.621 44.8H140.501Z" fill="white"/>
</g>
<defs>
<filter id="filter0_d_1055_761" x="0" y="0" width="187" height="88" filterUnits="userSpaceOnUse" color-interpolation-filters="sRGB">
<feFlood flood-opacity="0" result="BackgroundImageFix"/>
<feColorMatrix in="SourceAlpha" type="matrix" values="0 0 0 0 0 0 0 0 0 0 0 0 0 0 0 0 0 0 127 0" result="hardAlpha"/>
<feOffset/>
<feGaussianBlur stdDeviation="12"/>
<feComposite in2="hardAlpha" operator="out"/>
<feColorMatrix type="matrix" values="0 0 0 0 0 0 0 0 0 0 0 0 0 0 0 0 0 0 0.25 0"/>
<feBlend mode="normal" in2="BackgroundImageFix" result="effect1_dropShadow_1055_761"/>
<feBlend mode="normal" in="SourceGraphic" in2="effect1_dropShadow_1055_761" result="shape"/>
</filter>
<linearGradient id="paint0_linear_1055_761" x1="24" y1="44" x2="163" y2="44" gradientUnits="userSpaceOnUse">
<stop stop-color="#4A4745"/>
<stop offset="1" stop-color="#151414"/>
</linearGradient>
</defs>
</svg>
