<svg width="186" height="76" viewBox="0 0 186 76" fill="none" xmlns="http://www.w3.org/2000/svg">
<line x1="169.463" y1="54.433" x2="141.75" y2="38.433" stroke="#7D7978"/>
<line x1="142" y1="38.5" x2="126" y2="38.5" stroke="#7D7978"/>
<circle cx="176" cy="61" r="10" fill="#7D7A78"/>
<circle cx="176" cy="61" r="6" fill="white"/>
<g filter="url(#filter0_d_1055_598)">
<rect x="17" y="24" width="110" height="28" rx="14" fill="url(#paint0_linear_1055_598)"/>
<path d="M35.1557 38.359C35.6411 38.4457 36.0527 38.7013 36.3907 39.126C36.7287 39.5507 36.8977 40.0317 36.8977 40.569C36.8977 41.0283 36.7764 41.4443 36.5337 41.817C36.2997 42.181 35.9574 42.4713 35.5067 42.688C35.0561 42.896 34.5317 43 33.9337 43H30.3197V33.965H33.7647C34.3801 33.965 34.9087 34.069 35.3507 34.277C35.7927 34.485 36.1264 34.7667 36.3517 35.122C36.5771 35.4687 36.6897 35.8587 36.6897 36.292C36.6897 36.812 36.5511 37.2453 36.2737 37.592C35.9964 37.9387 35.6237 38.1943 35.1557 38.359ZM31.8017 37.761H33.6347C34.1201 37.761 34.4971 37.6527 34.7657 37.436C35.0431 37.2107 35.1817 36.89 35.1817 36.474C35.1817 36.0667 35.0431 35.7503 34.7657 35.525C34.4971 35.291 34.1201 35.174 33.6347 35.174H31.8017V37.761ZM33.8037 41.791C34.3064 41.791 34.7007 41.6697 34.9867 41.427C35.2727 41.1843 35.4157 40.8463 35.4157 40.413C35.4157 39.971 35.2641 39.62 34.9607 39.36C34.6574 39.1 34.2544 38.97 33.7517 38.97H31.8017V41.791H33.8037ZM45.0732 39.243C45.0732 39.5117 45.0559 39.7543 45.0212 39.971H39.5482C39.5915 40.543 39.8039 41.0023 40.1852 41.349C40.5665 41.6957 41.0345 41.869 41.5892 41.869C42.3865 41.869 42.9499 41.5353 43.2792 40.868H44.8782C44.6615 41.5267 44.2672 42.0683 43.6952 42.493C43.1319 42.909 42.4299 43.117 41.5892 43.117C40.9045 43.117 40.2892 42.9653 39.7432 42.662C39.2059 42.35 38.7812 41.9167 38.4692 41.362C38.1659 40.7987 38.0142 40.1487 38.0142 39.412C38.0142 38.6753 38.1615 38.0297 38.4562 37.475C38.7595 36.9117 39.1799 36.4783 39.7172 36.175C40.2632 35.8717 40.8872 35.72 41.5892 35.72C42.2652 35.72 42.8675 35.8673 43.3962 36.162C43.9249 36.4567 44.3365 36.8727 44.6312 37.41C44.9259 37.9387 45.0732 38.5497 45.0732 39.243ZM43.5262 38.775C43.5175 38.229 43.3225 37.7913 42.9412 37.462C42.5599 37.1327 42.0875 36.968 41.5242 36.968C41.0129 36.968 40.5752 37.1327 40.2112 37.462C39.8472 37.7827 39.6305 38.2203 39.5612 38.775H43.5262ZM49.1316 43.117C48.5683 43.117 48.0613 43.0173 47.6106 42.818C47.1686 42.61 46.8176 42.3327 46.5576 41.986C46.2976 41.6307 46.159 41.2363 46.1416 40.803H47.6756C47.7016 41.1063 47.8446 41.362 48.1046 41.57C48.3733 41.7693 48.707 41.869 49.1056 41.869C49.5216 41.869 49.8423 41.791 50.0676 41.635C50.3016 41.4703 50.4186 41.2623 50.4186 41.011C50.4186 40.7423 50.2886 40.543 50.0286 40.413C49.7773 40.283 49.3743 40.14 48.8196 39.984C48.2823 39.8367 47.8446 39.6937 47.5066 39.555C47.1686 39.4163 46.874 39.204 46.6226 38.918C46.38 38.632 46.2586 38.255 46.2586 37.787C46.2586 37.4057 46.3713 37.059 46.5966 36.747C46.822 36.4263 47.1426 36.175 47.5586 35.993C47.9833 35.811 48.4686 35.72 49.0146 35.72C49.8293 35.72 50.4836 35.928 50.9776 36.344C51.4803 36.7513 51.749 37.3103 51.7836 38.021H50.3016C50.2756 37.7003 50.1456 37.4447 49.9116 37.254C49.6776 37.0633 49.3613 36.968 48.9626 36.968C48.5726 36.968 48.2736 37.0417 48.0656 37.189C47.8576 37.3363 47.7536 37.5313 47.7536 37.774C47.7536 37.9647 47.823 38.125 47.9616 38.255C48.1003 38.385 48.2693 38.489 48.4686 38.567C48.668 38.6363 48.9626 38.7273 49.3526 38.84C49.8726 38.9787 50.2973 39.1217 50.6266 39.269C50.9646 39.4077 51.255 39.6157 51.4976 39.893C51.7403 40.1703 51.866 40.5387 51.8746 40.998C51.8746 41.4053 51.762 41.7693 51.5366 42.09C51.3113 42.4107 50.9906 42.662 50.5746 42.844C50.1673 43.026 49.6863 43.117 49.1316 43.117ZM55.205 37.046V41.011C55.205 41.2797 55.2656 41.4747 55.387 41.596C55.517 41.7087 55.7336 41.765 56.037 41.765H56.947V43H55.777C55.1096 43 54.5983 42.844 54.243 42.532C53.8876 42.22 53.71 41.713 53.71 41.011V37.046H52.865V35.837H53.71V34.056H55.205V35.837H56.947V37.046H55.205ZM61.1958 38.463C61.1958 37.579 61.3995 36.786 61.8068 36.084C62.2228 35.382 62.7818 34.836 63.4838 34.446C64.1945 34.0473 64.9702 33.848 65.8108 33.848C66.7728 33.848 67.6265 34.0863 68.3718 34.563C69.1258 35.031 69.6718 35.6983 70.0098 36.565H68.2288C67.9948 36.0883 67.6698 35.733 67.2538 35.499C66.8378 35.265 66.3568 35.148 65.8108 35.148C65.2128 35.148 64.6798 35.2823 64.2118 35.551C63.7438 35.8197 63.3755 36.2053 63.1068 36.708C62.8468 37.2107 62.7168 37.7957 62.7168 38.463C62.7168 39.1303 62.8468 39.7153 63.1068 40.218C63.3755 40.7207 63.7438 41.1107 64.2118 41.388C64.6798 41.6567 65.2128 41.791 65.8108 41.791C66.3568 41.791 66.8378 41.674 67.2538 41.44C67.6698 41.206 67.9948 40.8507 68.2288 40.374H70.0098C69.6718 41.2407 69.1258 41.908 68.3718 42.376C67.6265 42.844 66.7728 43.078 65.8108 43.078C64.9615 43.078 64.1858 42.883 63.4838 42.493C62.7818 42.0943 62.2228 41.544 61.8068 40.842C61.3995 40.14 61.1958 39.347 61.1958 38.463ZM74.8515 43.117C74.1755 43.117 73.5645 42.9653 73.0185 42.662C72.4725 42.35 72.0435 41.9167 71.7315 41.362C71.4195 40.7987 71.2635 40.1487 71.2635 39.412C71.2635 38.684 71.4239 38.0383 71.7445 37.475C72.0652 36.9117 72.5029 36.4783 73.0575 36.175C73.6122 35.8717 74.2319 35.72 74.9165 35.72C75.6012 35.72 76.2209 35.8717 76.7755 36.175C77.3302 36.4783 77.7679 36.9117 78.0885 37.475C78.4092 38.0383 78.5695 38.684 78.5695 39.412C78.5695 40.14 78.4049 40.7857 78.0755 41.349C77.7462 41.9123 77.2955 42.35 76.7235 42.662C76.1602 42.9653 75.5362 43.117 74.8515 43.117ZM74.8515 41.83C75.2329 41.83 75.5882 41.739 75.9175 41.557C76.2555 41.375 76.5285 41.102 76.7365 40.738C76.9445 40.374 77.0485 39.932 77.0485 39.412C77.0485 38.892 76.9489 38.4543 76.7495 38.099C76.5502 37.735 76.2859 37.462 75.9565 37.28C75.6272 37.098 75.2719 37.007 74.8905 37.007C74.5092 37.007 74.1539 37.098 73.8245 37.28C73.5039 37.462 73.2482 37.735 73.0575 38.099C72.8669 38.4543 72.7715 38.892 72.7715 39.412C72.7715 40.1833 72.9665 40.7813 73.3565 41.206C73.7552 41.622 74.2535 41.83 74.8515 41.83ZM88.7056 35.72C89.2689 35.72 89.7716 35.837 90.2136 36.071C90.6642 36.305 91.0152 36.6517 91.2666 37.111C91.5266 37.5703 91.6566 38.125 91.6566 38.775V43H90.1876V38.996C90.1876 38.3547 90.0272 37.865 89.7066 37.527C89.3859 37.1803 88.9482 37.007 88.3936 37.007C87.8389 37.007 87.3969 37.1803 87.0676 37.527C86.7469 37.865 86.5866 38.3547 86.5866 38.996V43H85.1176V38.996C85.1176 38.3547 84.9572 37.865 84.6366 37.527C84.3159 37.1803 83.8782 37.007 83.3236 37.007C82.7689 37.007 82.3269 37.1803 81.9976 37.527C81.6769 37.865 81.5166 38.3547 81.5166 38.996V43H80.0346V35.837H81.5166V36.656C81.7592 36.3613 82.0669 36.1317 82.4396 35.967C82.8122 35.8023 83.2109 35.72 83.6356 35.72C84.2076 35.72 84.7189 35.8413 85.1696 36.084C85.6202 36.3267 85.9669 36.6777 86.2096 37.137C86.4262 36.7037 86.7642 36.3613 87.2236 36.11C87.6829 35.85 88.1769 35.72 88.7056 35.72ZM96.5454 37.046H95.2194V43H93.7244V37.046H92.8794V35.837H93.7244V35.33C93.7244 34.5067 93.941 33.9087 94.3744 33.536C94.8164 33.1547 95.5054 32.964 96.4414 32.964V34.199C95.9907 34.199 95.6744 34.2857 95.4924 34.459C95.3104 34.6237 95.2194 34.914 95.2194 35.33V35.837H96.5454V37.046ZM100.966 43.117C100.29 43.117 99.6788 42.9653 99.1328 42.662C98.5868 42.35 98.1578 41.9167 97.8458 41.362C97.5338 40.7987 97.3778 40.1487 97.3778 39.412C97.3778 38.684 97.5381 38.0383 97.8588 37.475C98.1795 36.9117 98.6171 36.4783 99.1718 36.175C99.7265 35.8717 100.346 35.72 101.031 35.72C101.715 35.72 102.335 35.8717 102.89 36.175C103.444 36.4783 103.882 36.9117 104.203 37.475C104.523 38.0383 104.684 38.684 104.684 39.412C104.684 40.14 104.519 40.7857 104.19 41.349C103.86 41.9123 103.41 42.35 102.838 42.662C102.274 42.9653 101.65 43.117 100.966 43.117ZM100.966 41.83C101.347 41.83 101.702 41.739 102.032 41.557C102.37 41.375 102.643 41.102 102.851 40.738C103.059 40.374 103.163 39.932 103.163 39.412C103.163 38.892 103.063 38.4543 102.864 38.099C102.664 37.735 102.4 37.462 102.071 37.28C101.741 37.098 101.386 37.007 101.005 37.007C100.623 37.007 100.268 37.098 99.9388 37.28C99.6181 37.462 99.3625 37.735 99.1718 38.099C98.9811 38.4543 98.8858 38.892 98.8858 39.412C98.8858 40.1833 99.0808 40.7813 99.4708 41.206C99.8695 41.622 100.368 41.83 100.966 41.83ZM107.631 36.877C107.847 36.513 108.133 36.2313 108.489 36.032C108.853 35.824 109.282 35.72 109.776 35.72V37.254H109.399C108.818 37.254 108.376 37.4013 108.073 37.696C107.778 37.9907 107.631 38.502 107.631 39.23V43H106.149V35.837H107.631V36.877ZM112.867 37.046V41.011C112.867 41.2797 112.928 41.4747 113.049 41.596C113.179 41.7087 113.396 41.765 113.699 41.765H114.609V43H113.439C112.772 43 112.26 42.844 111.905 42.532C111.55 42.22 111.372 41.713 111.372 41.011V37.046H110.527V35.837H111.372V34.056H112.867V35.837H114.609V37.046H112.867Z" fill="white"/>
</g>
<defs>
<filter id="filter0_d_1055_598" x="-7" y="0" width="158" height="76" filterUnits="userSpaceOnUse" color-interpolation-filters="sRGB">
<feFlood flood-opacity="0" result="BackgroundImageFix"/>
<feColorMatrix in="SourceAlpha" type="matrix" values="0 0 0 0 0 0 0 0 0 0 0 0 0 0 0 0 0 0 127 0" result="hardAlpha"/>
<feOffset/>
<feGaussianBlur stdDeviation="12"/>
<feComposite in2="hardAlpha" operator="out"/>
<feColorMatrix type="matrix" values="0 0 0 0 0 0 0 0 0 0 0 0 0 0 0 0 0 0 0.25 0"/>
<feBlend mode="normal" in2="BackgroundImageFix" result="effect1_dropShadow_1055_598"/>
<feBlend mode="normal" in="SourceGraphic" in2="effect1_dropShadow_1055_598" result="shape"/>
</filter>
<linearGradient id="paint0_linear_1055_598" x1="17" y1="38" x2="127" y2="38" gradientUnits="userSpaceOnUse">
<stop stop-color="#4A4745"/>
<stop offset="1" stop-color="#151414"/>
</linearGradient>
</defs>
</svg>
