<svg width="282" height="88" viewBox="0 0 282 88" fill="none" xmlns="http://www.w3.org/2000/svg">
<line y1="-1" x2="40" y2="-1" transform="matrix(0.866025 -0.5 -0.5 -0.866025 16.2871 61.9999)" stroke="#7D7978" stroke-width="2"/>
<line y1="-1" x2="32" y2="-1" transform="matrix(1 8.74228e-08 8.74228e-08 -1 51 42)" stroke="#7D7978" stroke-width="2"/>
<ellipse cx="10" cy="10" rx="10" ry="10" transform="matrix(-1 0 0 1 20 58.9999)" fill="#7D7A78"/>
<ellipse cx="6" cy="6" rx="6" ry="6" transform="matrix(-1 0 0 1 16 62.9999)" fill="white"/>
<g filter="url(#filter0_d_1055_752)">
<rect x="82" y="24" width="176" height="40" rx="20" fill="url(#paint0_linear_1055_752)"/>
<path d="M105.821 40.352V43.616H109.661V45.104H105.821V48.512H110.141V50H103.997V38.864H110.141V40.352H105.821ZM111.78 45.552C111.78 44.6667 111.961 43.8827 112.324 43.2C112.697 42.5173 113.198 41.9893 113.828 41.616C114.468 41.232 115.172 41.04 115.94 41.04C116.633 41.04 117.236 41.1787 117.748 41.456C118.27 41.7227 118.686 42.0587 118.996 42.464V41.184H120.836V50H118.996V48.688C118.686 49.104 118.265 49.4507 117.732 49.728C117.198 50.0053 116.59 50.144 115.908 50.144C115.15 50.144 114.457 49.952 113.828 49.568C113.198 49.1733 112.697 48.6293 112.324 47.936C111.961 47.232 111.78 46.4373 111.78 45.552ZM118.996 45.584C118.996 44.976 118.868 44.448 118.612 44C118.366 43.552 118.041 43.2107 117.636 42.976C117.23 42.7413 116.793 42.624 116.324 42.624C115.854 42.624 115.417 42.7413 115.012 42.976C114.606 43.2 114.276 43.536 114.02 43.984C113.774 44.4213 113.652 44.944 113.652 45.552C113.652 46.16 113.774 46.6933 114.02 47.152C114.276 47.6107 114.606 47.9627 115.012 48.208C115.428 48.4427 115.865 48.56 116.324 48.56C116.793 48.56 117.23 48.4427 117.636 48.208C118.041 47.9733 118.366 47.632 118.612 47.184C118.868 46.7253 118.996 46.192 118.996 45.584ZM126.431 50.144C125.738 50.144 125.114 50.0213 124.559 49.776C124.015 49.52 123.583 49.1787 123.263 48.752C122.943 48.3147 122.773 47.8293 122.751 47.296H124.639C124.671 47.6693 124.847 47.984 125.167 48.24C125.498 48.4853 125.909 48.608 126.399 48.608C126.911 48.608 127.306 48.512 127.583 48.32C127.871 48.1173 128.015 47.8613 128.015 47.552C128.015 47.2213 127.855 46.976 127.535 46.816C127.226 46.656 126.73 46.48 126.047 46.288C125.386 46.1067 124.847 45.9307 124.431 45.76C124.015 45.5893 123.653 45.328 123.343 44.976C123.045 44.624 122.895 44.16 122.895 43.584C122.895 43.1147 123.034 42.688 123.311 42.304C123.589 41.9093 123.983 41.6 124.495 41.376C125.018 41.152 125.615 41.04 126.287 41.04C127.29 41.04 128.095 41.296 128.703 41.808C129.322 42.3093 129.653 42.9973 129.695 43.872H127.871C127.839 43.4773 127.679 43.1627 127.391 42.928C127.103 42.6933 126.714 42.576 126.223 42.576C125.743 42.576 125.375 42.6667 125.119 42.848C124.863 43.0293 124.735 43.2693 124.735 43.568C124.735 43.8027 124.821 44 124.991 44.16C125.162 44.32 125.37 44.448 125.615 44.544C125.861 44.6293 126.223 44.7413 126.703 44.88C127.343 45.0507 127.866 45.2267 128.271 45.408C128.687 45.5787 129.045 45.8347 129.343 46.176C129.642 46.5173 129.797 46.9707 129.807 47.536C129.807 48.0373 129.669 48.4853 129.391 48.88C129.114 49.2747 128.719 49.584 128.207 49.808C127.706 50.032 127.114 50.144 126.431 50.144ZM139.714 41.184L134.306 54.144H132.418L134.21 49.856L130.738 41.184H132.77L135.25 47.904L137.826 41.184H139.714ZM151.951 47.728H147.295L146.495 50H144.591L148.575 38.864H150.687L154.671 50H152.751L151.951 47.728ZM151.439 46.24L149.631 41.072L147.807 46.24H151.439ZM155.795 45.552C155.795 44.6667 155.976 43.8827 156.339 43.2C156.712 42.5173 157.214 41.9893 157.843 41.616C158.483 41.232 159.192 41.04 159.971 41.04C160.547 41.04 161.112 41.168 161.667 41.424C162.232 41.6693 162.68 42 163.011 42.416V38.16H164.851V50H163.011V48.672C162.712 49.0987 162.296 49.4507 161.763 49.728C161.24 50.0053 160.638 50.144 159.955 50.144C159.187 50.144 158.483 49.952 157.843 49.568C157.214 49.1733 156.712 48.6293 156.339 47.936C155.976 47.232 155.795 46.4373 155.795 45.552ZM163.011 45.584C163.011 44.976 162.883 44.448 162.627 44C162.382 43.552 162.056 43.2107 161.651 42.976C161.246 42.7413 160.808 42.624 160.339 42.624C159.87 42.624 159.432 42.7413 159.027 42.976C158.622 43.2 158.291 43.536 158.035 43.984C157.79 44.4213 157.667 44.944 157.667 45.552C157.667 46.16 157.79 46.6933 158.035 47.152C158.291 47.6107 158.622 47.9627 159.027 48.208C159.443 48.4427 159.88 48.56 160.339 48.56C160.808 48.56 161.246 48.4427 161.651 48.208C162.056 47.9733 162.382 47.632 162.627 47.184C162.883 46.7253 163.011 46.192 163.011 45.584ZM168.175 40.016C167.844 40.016 167.567 39.904 167.343 39.68C167.119 39.456 167.007 39.1787 167.007 38.848C167.007 38.5173 167.119 38.24 167.343 38.016C167.567 37.792 167.844 37.68 168.175 37.68C168.495 37.68 168.767 37.792 168.991 38.016C169.215 38.24 169.327 38.5173 169.327 38.848C169.327 39.1787 169.215 39.456 168.991 39.68C168.767 39.904 168.495 40.016 168.175 40.016ZM169.071 51.728C169.071 52.592 168.852 53.216 168.415 53.6C167.988 53.9947 167.364 54.192 166.543 54.192H165.599V52.656H166.223C166.596 52.656 166.858 52.5813 167.007 52.432C167.167 52.2933 167.247 52.0587 167.247 51.728V41.184H169.071V51.728ZM179.45 41.184V50H177.626V48.96C177.338 49.3227 176.959 49.6107 176.49 49.824C176.031 50.0267 175.54 50.128 175.018 50.128C174.324 50.128 173.7 49.984 173.146 49.696C172.602 49.408 172.17 48.9813 171.85 48.416C171.54 47.8507 171.386 47.168 171.386 46.368V41.184H173.194V46.096C173.194 46.8853 173.391 47.4933 173.786 47.92C174.18 48.336 174.719 48.544 175.402 48.544C176.084 48.544 176.623 48.336 177.018 47.92C177.423 47.4933 177.626 46.8853 177.626 46.096V41.184H179.45ZM185.056 50.144C184.363 50.144 183.739 50.0213 183.184 49.776C182.64 49.52 182.208 49.1787 181.888 48.752C181.568 48.3147 181.398 47.8293 181.376 47.296H183.264C183.296 47.6693 183.472 47.984 183.792 48.24C184.123 48.4853 184.534 48.608 185.024 48.608C185.536 48.608 185.931 48.512 186.208 48.32C186.496 48.1173 186.64 47.8613 186.64 47.552C186.64 47.2213 186.48 46.976 186.16 46.816C185.851 46.656 185.355 46.48 184.672 46.288C184.011 46.1067 183.472 45.9307 183.056 45.76C182.64 45.5893 182.278 45.328 181.968 44.976C181.67 44.624 181.52 44.16 181.52 43.584C181.52 43.1147 181.659 42.688 181.936 42.304C182.214 41.9093 182.608 41.6 183.12 41.376C183.643 41.152 184.24 41.04 184.912 41.04C185.915 41.04 186.72 41.296 187.328 41.808C187.947 42.3093 188.278 42.9973 188.32 43.872H186.496C186.464 43.4773 186.304 43.1627 186.016 42.928C185.728 42.6933 185.339 42.576 184.848 42.576C184.368 42.576 184 42.6667 183.744 42.848C183.488 43.0293 183.36 43.2693 183.36 43.568C183.36 43.8027 183.446 44 183.616 44.16C183.787 44.32 183.995 44.448 184.24 44.544C184.486 44.6293 184.848 44.7413 185.328 44.88C185.968 45.0507 186.491 45.2267 186.896 45.408C187.312 45.5787 187.67 45.8347 187.968 46.176C188.267 46.5173 188.422 46.9707 188.432 47.536C188.432 48.0373 188.294 48.4853 188.016 48.88C187.739 49.2747 187.344 49.584 186.832 49.808C186.331 50.032 185.739 50.144 185.056 50.144ZM192.531 42.672V47.552C192.531 47.8827 192.606 48.1227 192.755 48.272C192.915 48.4107 193.182 48.48 193.555 48.48H194.675V50H193.235C192.414 50 191.784 49.808 191.347 49.424C190.91 49.04 190.691 48.416 190.691 47.552V42.672H189.651V41.184H190.691V38.992H192.531V41.184H194.675V42.672H192.531ZM207.028 41.04C207.722 41.04 208.34 41.184 208.884 41.472C209.439 41.76 209.871 42.1867 210.18 42.752C210.5 43.3173 210.66 44 210.66 44.8V50H208.852V45.072C208.852 44.2827 208.655 43.68 208.26 43.264C207.866 42.8373 207.327 42.624 206.644 42.624C205.962 42.624 205.418 42.8373 205.012 43.264C204.618 43.68 204.42 44.2827 204.42 45.072V50H202.612V45.072C202.612 44.2827 202.415 43.68 202.02 43.264C201.626 42.8373 201.087 42.624 200.404 42.624C199.722 42.624 199.178 42.8373 198.772 43.264C198.378 43.68 198.18 44.2827 198.18 45.072V50H196.356V41.184H198.18V42.192C198.479 41.8293 198.858 41.5467 199.316 41.344C199.775 41.1413 200.266 41.04 200.788 41.04C201.492 41.04 202.122 41.1893 202.676 41.488C203.231 41.7867 203.658 42.2187 203.956 42.784C204.223 42.2507 204.639 41.8293 205.204 41.52C205.77 41.2 206.378 41.04 207.028 41.04ZM221.061 45.376C221.061 45.7067 221.04 46.0053 220.997 46.272H214.261C214.315 46.976 214.576 47.5413 215.045 47.968C215.515 48.3947 216.091 48.608 216.773 48.608C217.755 48.608 218.448 48.1973 218.853 47.376H220.821C220.555 48.1867 220.069 48.8533 219.365 49.376C218.672 49.888 217.808 50.144 216.773 50.144C215.931 50.144 215.173 49.9573 214.501 49.584C213.84 49.2 213.317 48.6667 212.933 47.984C212.56 47.2907 212.373 46.4907 212.373 45.584C212.373 44.6773 212.555 43.8827 212.917 43.2C213.291 42.5067 213.808 41.9733 214.469 41.6C215.141 41.2267 215.909 41.04 216.773 41.04C217.605 41.04 218.347 41.2213 218.997 41.584C219.648 41.9467 220.155 42.4587 220.517 43.12C220.88 43.7707 221.061 44.5227 221.061 45.376ZM219.157 44.8C219.147 44.128 218.907 43.5893 218.437 43.184C217.968 42.7787 217.387 42.576 216.693 42.576C216.064 42.576 215.525 42.7787 215.077 43.184C214.629 43.5787 214.363 44.1173 214.277 44.8H219.157ZM227.304 41.04C227.998 41.04 228.616 41.184 229.16 41.472C229.715 41.76 230.147 42.1867 230.456 42.752C230.766 43.3173 230.92 44 230.92 44.8V50H229.112V45.072C229.112 44.2827 228.915 43.68 228.52 43.264C228.126 42.8373 227.587 42.624 226.904 42.624C226.222 42.624 225.678 42.8373 225.272 43.264C224.878 43.68 224.68 44.2827 224.68 45.072V50H222.856V41.184H224.68V42.192C224.979 41.8293 225.358 41.5467 225.816 41.344C226.286 41.1413 226.782 41.04 227.304 41.04ZM235.375 42.672V47.552C235.375 47.8827 235.45 48.1227 235.599 48.272C235.759 48.4107 236.026 48.48 236.399 48.48H237.519V50H236.079C235.258 50 234.628 49.808 234.191 49.424C233.754 49.04 233.535 48.416 233.535 47.552V42.672H232.495V41.184H233.535V38.992H235.375V41.184H237.519V42.672H235.375Z" fill="white"/>
</g>
<defs>
<filter id="filter0_d_1055_752" x="58" y="0" width="224" height="88" filterUnits="userSpaceOnUse" color-interpolation-filters="sRGB">
<feFlood flood-opacity="0" result="BackgroundImageFix"/>
<feColorMatrix in="SourceAlpha" type="matrix" values="0 0 0 0 0 0 0 0 0 0 0 0 0 0 0 0 0 0 127 0" result="hardAlpha"/>
<feOffset/>
<feGaussianBlur stdDeviation="12"/>
<feComposite in2="hardAlpha" operator="out"/>
<feColorMatrix type="matrix" values="0 0 0 0 0 0 0 0 0 0 0 0 0 0 0 0 0 0 0.25 0"/>
<feBlend mode="normal" in2="BackgroundImageFix" result="effect1_dropShadow_1055_752"/>
<feBlend mode="normal" in="SourceGraphic" in2="effect1_dropShadow_1055_752" result="shape"/>
</filter>
<linearGradient id="paint0_linear_1055_752" x1="82" y1="44" x2="258" y2="44" gradientUnits="userSpaceOnUse">
<stop stop-color="#4A4745"/>
<stop offset="1" stop-color="#151414"/>
</linearGradient>
</defs>
</svg>
