<svg width="362" height="88" viewBox="0 0 362 88" fill="none" xmlns="http://www.w3.org/2000/svg">
<line y1="-1" x2="40" y2="-1" transform="matrix(0.866025 -0.5 -0.5 -0.866025 16.2871 61.9999)" stroke="#7D7978" stroke-width="2"/>
<line x1="51" y1="43" x2="183" y2="43" stroke="#7D7978" stroke-width="2"/>
<ellipse cx="10" cy="10" rx="10" ry="10" transform="matrix(-1 0 0 1 20 58.9999)" fill="#7D7A78"/>
<ellipse cx="6" cy="6" rx="6" ry="6" transform="matrix(-1 0 0 1 16 62.9999)" fill="white"/>
<g filter="url(#filter0_d_1055_771)">
<rect x="182" y="24" width="156" height="40" rx="20" fill="url(#paint0_linear_1055_771)"/>
<path d="M203.53 44.416C203.53 43.328 203.78 42.352 204.282 41.488C204.794 40.624 205.482 39.952 206.346 39.472C207.22 38.9813 208.175 38.736 209.21 38.736C210.394 38.736 211.444 39.0293 212.362 39.616C213.29 40.192 213.962 41.0133 214.378 42.08H212.186C211.898 41.4933 211.498 41.056 210.986 40.768C210.474 40.48 209.882 40.336 209.21 40.336C208.474 40.336 207.818 40.5013 207.242 40.832C206.666 41.1627 206.212 41.6373 205.882 42.256C205.562 42.8747 205.402 43.5947 205.402 44.416C205.402 45.2373 205.562 45.9573 205.882 46.576C206.212 47.1947 206.666 47.6747 207.242 48.016C207.818 48.3467 208.474 48.512 209.21 48.512C209.882 48.512 210.474 48.368 210.986 48.08C211.498 47.792 211.898 47.3547 212.186 46.768H214.378C213.962 47.8347 213.29 48.656 212.362 49.232C211.444 49.808 210.394 50.096 209.21 50.096C208.164 50.096 207.21 49.856 206.346 49.376C205.482 48.8853 204.794 48.208 204.282 47.344C203.78 46.48 203.53 45.504 203.53 44.416ZM224.497 41.184V50H222.673V48.96C222.385 49.3227 222.006 49.6107 221.537 49.824C221.078 50.0267 220.587 50.128 220.065 50.128C219.371 50.128 218.747 49.984 218.193 49.696C217.649 49.408 217.217 48.9813 216.897 48.416C216.587 47.8507 216.433 47.168 216.433 46.368V41.184H218.241V46.096C218.241 46.8853 218.438 47.4933 218.833 47.92C219.227 48.336 219.766 48.544 220.449 48.544C221.131 48.544 221.67 48.336 222.065 47.92C222.47 47.4933 222.673 46.8853 222.673 46.096V41.184H224.497ZM230.103 50.144C229.41 50.144 228.786 50.0213 228.231 49.776C227.687 49.52 227.255 49.1787 226.935 48.752C226.615 48.3147 226.444 47.8293 226.423 47.296H228.311C228.343 47.6693 228.519 47.984 228.839 48.24C229.17 48.4853 229.58 48.608 230.071 48.608C230.583 48.608 230.978 48.512 231.255 48.32C231.543 48.1173 231.687 47.8613 231.687 47.552C231.687 47.2213 231.527 46.976 231.207 46.816C230.898 46.656 230.402 46.48 229.719 46.288C229.058 46.1067 228.519 45.9307 228.103 45.76C227.687 45.5893 227.324 45.328 227.015 44.976C226.716 44.624 226.567 44.16 226.567 43.584C226.567 43.1147 226.706 42.688 226.983 42.304C227.26 41.9093 227.655 41.6 228.167 41.376C228.69 41.152 229.287 41.04 229.959 41.04C230.962 41.04 231.767 41.296 232.375 41.808C232.994 42.3093 233.324 42.9973 233.367 43.872H231.543C231.511 43.4773 231.351 43.1627 231.063 42.928C230.775 42.6933 230.386 42.576 229.895 42.576C229.415 42.576 229.047 42.6667 228.791 42.848C228.535 43.0293 228.407 43.2693 228.407 43.568C228.407 43.8027 228.492 44 228.663 44.16C228.834 44.32 229.042 44.448 229.287 44.544C229.532 44.6293 229.895 44.7413 230.375 44.88C231.015 45.0507 231.538 45.2267 231.943 45.408C232.359 45.5787 232.716 45.8347 233.015 46.176C233.314 46.5173 233.468 46.9707 233.479 47.536C233.479 48.0373 233.34 48.4853 233.063 48.88C232.786 49.2747 232.391 49.584 231.879 49.808C231.378 50.032 230.786 50.144 230.103 50.144ZM237.578 42.672V47.552C237.578 47.8827 237.653 48.1227 237.802 48.272C237.962 48.4107 238.229 48.48 238.602 48.48H239.722V50H238.282C237.461 50 236.831 49.808 236.394 49.424C235.957 49.04 235.738 48.416 235.738 47.552V42.672H234.698V41.184H235.738V38.992H237.578V41.184H239.722V42.672H237.578ZM245.227 50.144C244.395 50.144 243.643 49.9573 242.971 49.584C242.299 49.2 241.771 48.6667 241.387 47.984C241.003 47.2907 240.811 46.4907 240.811 45.584C240.811 44.688 241.008 43.8933 241.403 43.2C241.798 42.5067 242.336 41.9733 243.019 41.6C243.702 41.2267 244.464 41.04 245.307 41.04C246.15 41.04 246.912 41.2267 247.595 41.6C248.278 41.9733 248.816 42.5067 249.211 43.2C249.606 43.8933 249.803 44.688 249.803 45.584C249.803 46.48 249.6 47.2747 249.195 47.968C248.79 48.6613 248.235 49.2 247.531 49.584C246.838 49.9573 246.07 50.144 245.227 50.144ZM245.227 48.56C245.696 48.56 246.134 48.448 246.539 48.224C246.955 48 247.291 47.664 247.547 47.216C247.803 46.768 247.931 46.224 247.931 45.584C247.931 44.944 247.808 44.4053 247.563 43.968C247.318 43.52 246.992 43.184 246.587 42.96C246.182 42.736 245.744 42.624 245.275 42.624C244.806 42.624 244.368 42.736 243.963 42.96C243.568 43.184 243.254 43.52 243.019 43.968C242.784 44.4053 242.667 44.944 242.667 45.584C242.667 46.5333 242.907 47.2693 243.387 47.792C243.878 48.304 244.491 48.56 245.227 48.56ZM262.278 41.04C262.972 41.04 263.59 41.184 264.134 41.472C264.689 41.76 265.121 42.1867 265.43 42.752C265.75 43.3173 265.91 44 265.91 44.8V50H264.102V45.072C264.102 44.2827 263.905 43.68 263.51 43.264C263.116 42.8373 262.577 42.624 261.894 42.624C261.212 42.624 260.668 42.8373 260.262 43.264C259.868 43.68 259.67 44.2827 259.67 45.072V50H257.862V45.072C257.862 44.2827 257.665 43.68 257.27 43.264C256.876 42.8373 256.337 42.624 255.654 42.624C254.972 42.624 254.428 42.8373 254.022 43.264C253.628 43.68 253.43 44.2827 253.43 45.072V50H251.606V41.184H253.43V42.192C253.729 41.8293 254.108 41.5467 254.566 41.344C255.025 41.1413 255.516 41.04 256.038 41.04C256.742 41.04 257.372 41.1893 257.926 41.488C258.481 41.7867 258.908 42.2187 259.206 42.784C259.473 42.2507 259.889 41.8293 260.454 41.52C261.02 41.2 261.628 41.04 262.278 41.04ZM279.092 47.728H274.436L273.636 50H271.732L275.716 38.864H277.828L281.812 50H279.892L279.092 47.728ZM278.58 46.24L276.772 41.072L274.948 46.24H278.58ZM291.528 41.184V50H289.704V48.96C289.416 49.3227 289.037 49.6107 288.568 49.824C288.109 50.0267 287.618 50.128 287.096 50.128C286.402 50.128 285.778 49.984 285.224 49.696C284.68 49.408 284.248 48.9813 283.928 48.416C283.618 47.8507 283.464 47.168 283.464 46.368V41.184H285.272V46.096C285.272 46.8853 285.469 47.4933 285.864 47.92C286.258 48.336 286.797 48.544 287.48 48.544C288.162 48.544 288.701 48.336 289.096 47.92C289.501 47.4933 289.704 46.8853 289.704 46.096V41.184H291.528ZM293.326 45.552C293.326 44.6667 293.508 43.8827 293.87 43.2C294.244 42.5173 294.745 41.9893 295.374 41.616C296.014 41.232 296.724 41.04 297.502 41.04C298.078 41.04 298.644 41.168 299.198 41.424C299.764 41.6693 300.212 42 300.542 42.416V38.16H302.382V50H300.542V48.672C300.244 49.0987 299.828 49.4507 299.294 49.728C298.772 50.0053 298.169 50.144 297.486 50.144C296.718 50.144 296.014 49.952 295.374 49.568C294.745 49.1733 294.244 48.6293 293.87 47.936C293.508 47.232 293.326 46.4373 293.326 45.552ZM300.542 45.584C300.542 44.976 300.414 44.448 300.158 44C299.913 43.552 299.588 43.2107 299.182 42.976C298.777 42.7413 298.34 42.624 297.87 42.624C297.401 42.624 296.964 42.7413 296.558 42.976C296.153 43.2 295.822 43.536 295.566 43.984C295.321 44.4213 295.198 44.944 295.198 45.552C295.198 46.16 295.321 46.6933 295.566 47.152C295.822 47.6107 296.153 47.9627 296.558 48.208C296.974 48.4427 297.412 48.56 297.87 48.56C298.34 48.56 298.777 48.4427 299.182 48.208C299.588 47.9733 299.913 47.632 300.158 47.184C300.414 46.7253 300.542 46.192 300.542 45.584ZM305.706 40.016C305.375 40.016 305.098 39.904 304.874 39.68C304.65 39.456 304.538 39.1787 304.538 38.848C304.538 38.5173 304.65 38.24 304.874 38.016C305.098 37.792 305.375 37.68 305.706 37.68C306.026 37.68 306.298 37.792 306.522 38.016C306.746 38.24 306.858 38.5173 306.858 38.848C306.858 39.1787 306.746 39.456 306.522 39.68C306.298 39.904 306.026 40.016 305.706 40.016ZM306.602 41.184V50H304.778V41.184H306.602ZM312.821 50.144C311.989 50.144 311.237 49.9573 310.565 49.584C309.893 49.2 309.365 48.6667 308.981 47.984C308.597 47.2907 308.405 46.4907 308.405 45.584C308.405 44.688 308.602 43.8933 308.997 43.2C309.392 42.5067 309.93 41.9733 310.613 41.6C311.296 41.2267 312.058 41.04 312.901 41.04C313.744 41.04 314.506 41.2267 315.189 41.6C315.872 41.9733 316.41 42.5067 316.805 43.2C317.2 43.8933 317.397 44.688 317.397 45.584C317.397 46.48 317.194 47.2747 316.789 47.968C316.384 48.6613 315.829 49.2 315.125 49.584C314.432 49.9573 313.664 50.144 312.821 50.144ZM312.821 48.56C313.29 48.56 313.728 48.448 314.133 48.224C314.549 48 314.885 47.664 315.141 47.216C315.397 46.768 315.525 46.224 315.525 45.584C315.525 44.944 315.402 44.4053 315.157 43.968C314.912 43.52 314.586 43.184 314.181 42.96C313.776 42.736 313.338 42.624 312.869 42.624C312.4 42.624 311.962 42.736 311.557 42.96C311.162 43.184 310.848 43.52 310.613 43.968C310.378 44.4053 310.261 44.944 310.261 45.584C310.261 46.5333 310.501 47.2693 310.981 47.792C311.472 48.304 312.085 48.56 312.821 48.56Z" fill="white"/>
</g>
<defs>
<filter id="filter0_d_1055_771" x="158" y="0" width="204" height="88" filterUnits="userSpaceOnUse" color-interpolation-filters="sRGB">
<feFlood flood-opacity="0" result="BackgroundImageFix"/>
<feColorMatrix in="SourceAlpha" type="matrix" values="0 0 0 0 0 0 0 0 0 0 0 0 0 0 0 0 0 0 127 0" result="hardAlpha"/>
<feOffset/>
<feGaussianBlur stdDeviation="12"/>
<feComposite in2="hardAlpha" operator="out"/>
<feColorMatrix type="matrix" values="0 0 0 0 0 0 0 0 0 0 0 0 0 0 0 0 0 0 0.25 0"/>
<feBlend mode="normal" in2="BackgroundImageFix" result="effect1_dropShadow_1055_771"/>
<feBlend mode="normal" in="SourceGraphic" in2="effect1_dropShadow_1055_771" result="shape"/>
</filter>
<linearGradient id="paint0_linear_1055_771" x1="182" y1="44" x2="338" y2="44" gradientUnits="userSpaceOnUse">
<stop stop-color="#4A4745"/>
<stop offset="1" stop-color="#151414"/>
</linearGradient>
</defs>
</svg>
