<svg width="187" height="76" viewBox="0 0 187 76" fill="none" xmlns="http://www.w3.org/2000/svg">
<line y1="-0.5" x2="32" y2="-0.5" transform="matrix(0.866025 -0.5 -0.5 -0.866025 16.2871 53.9999)" stroke="#7D7978"/>
<line y1="-0.5" x2="16" y2="-0.5" transform="matrix(1 8.74228e-08 8.74228e-08 -1 44 37.9999)" stroke="#7D7978"/>
<ellipse cx="10" cy="10" rx="10" ry="10" transform="matrix(-1 0 0 1 20 50.9999)" fill="#7D7A78"/>
<ellipse cx="6" cy="6" rx="6" ry="6" transform="matrix(-1 0 0 1 16 54.9999)" fill="white"/>
<g filter="url(#filter0_d_1055_616)">
<rect x="59" y="24" width="104" height="28" rx="14" fill="url(#paint0_linear_1055_616)"/>
<path d="M77.502 33.965V35.174H73.667V37.839H76.657V39.048H73.667V43H72.185V33.965H77.502ZM78.3814 39.386C78.3814 38.6667 78.5287 38.0297 78.8234 37.475C79.1267 36.9203 79.5341 36.4913 80.0454 36.188C80.5654 35.876 81.1374 35.72 81.7614 35.72C82.3247 35.72 82.8144 35.8327 83.2304 36.058C83.6551 36.2747 83.9931 36.5477 84.2444 36.877V35.837H85.7394V43H84.2444V41.934C83.9931 42.272 83.6507 42.5537 83.2174 42.779C82.7841 43.0043 82.2901 43.117 81.7354 43.117C81.1201 43.117 80.5567 42.961 80.0454 42.649C79.5341 42.3283 79.1267 41.8863 78.8234 41.323C78.5287 40.751 78.3814 40.1053 78.3814 39.386ZM84.2444 39.412C84.2444 38.918 84.1404 38.489 83.9324 38.125C83.7331 37.761 83.4687 37.4837 83.1394 37.293C82.8101 37.1023 82.4547 37.007 82.0734 37.007C81.6921 37.007 81.3367 37.1023 81.0074 37.293C80.6781 37.475 80.4094 37.748 80.2014 38.112C80.0021 38.4673 79.9024 38.892 79.9024 39.386C79.9024 39.88 80.0021 40.3133 80.2014 40.686C80.4094 41.0587 80.6781 41.3447 81.0074 41.544C81.3454 41.7347 81.7007 41.83 82.0734 41.83C82.4547 41.83 82.8101 41.7347 83.1394 41.544C83.4687 41.3533 83.7331 41.076 83.9324 40.712C84.1404 40.3393 84.2444 39.906 84.2444 39.412ZM90.2859 43.117C89.7226 43.117 89.2156 43.0173 88.7649 42.818C88.3229 42.61 87.9719 42.3327 87.7119 41.986C87.4519 41.6307 87.3133 41.2363 87.2959 40.803H88.8299C88.8559 41.1063 88.9989 41.362 89.2589 41.57C89.5276 41.7693 89.8613 41.869 90.2599 41.869C90.6759 41.869 90.9966 41.791 91.2219 41.635C91.4559 41.4703 91.5729 41.2623 91.5729 41.011C91.5729 40.7423 91.4429 40.543 91.1829 40.413C90.9316 40.283 90.5286 40.14 89.9739 39.984C89.4366 39.8367 88.9989 39.6937 88.6609 39.555C88.3229 39.4163 88.0283 39.204 87.7769 38.918C87.5343 38.632 87.4129 38.255 87.4129 37.787C87.4129 37.4057 87.5256 37.059 87.7509 36.747C87.9763 36.4263 88.2969 36.175 88.7129 35.993C89.1376 35.811 89.6229 35.72 90.1689 35.72C90.9836 35.72 91.6379 35.928 92.1319 36.344C92.6346 36.7513 92.9033 37.3103 92.9379 38.021H91.4559C91.4299 37.7003 91.2999 37.4447 91.0659 37.254C90.8319 37.0633 90.5156 36.968 90.1169 36.968C89.7269 36.968 89.4279 37.0417 89.2199 37.189C89.0119 37.3363 88.9079 37.5313 88.9079 37.774C88.9079 37.9647 88.9773 38.125 89.1159 38.255C89.2546 38.385 89.4236 38.489 89.6229 38.567C89.8223 38.6363 90.1169 38.7273 90.5069 38.84C91.0269 38.9787 91.4516 39.1217 91.7809 39.269C92.1189 39.4077 92.4093 39.6157 92.6519 39.893C92.8946 40.1703 93.0203 40.5387 93.0289 40.998C93.0289 41.4053 92.9163 41.7693 92.6909 42.09C92.4656 42.4107 92.1449 42.662 91.7289 42.844C91.3216 43.026 90.8406 43.117 90.2859 43.117ZM96.3593 37.046V41.011C96.3593 41.2797 96.4199 41.4747 96.5413 41.596C96.6713 41.7087 96.8879 41.765 97.1913 41.765H98.1013V43H96.9313C96.2639 43 95.7526 42.844 95.3973 42.532C95.0419 42.22 94.8643 41.713 94.8643 41.011V37.046H94.0193V35.837H94.8643V34.056H96.3593V35.837H98.1013V37.046H96.3593ZM102.35 38.463C102.35 37.579 102.554 36.786 102.961 36.084C103.377 35.382 103.936 34.836 104.638 34.446C105.349 34.0473 106.124 33.848 106.965 33.848C107.927 33.848 108.781 34.0863 109.526 34.563C110.28 35.031 110.826 35.6983 111.164 36.565H109.383C109.149 36.0883 108.824 35.733 108.408 35.499C107.992 35.265 107.511 35.148 106.965 35.148C106.367 35.148 105.834 35.2823 105.366 35.551C104.898 35.8197 104.53 36.2053 104.261 36.708C104.001 37.2107 103.871 37.7957 103.871 38.463C103.871 39.1303 104.001 39.7153 104.261 40.218C104.53 40.7207 104.898 41.1107 105.366 41.388C105.834 41.6567 106.367 41.791 106.965 41.791C107.511 41.791 107.992 41.674 108.408 41.44C108.824 41.206 109.149 40.8507 109.383 40.374H111.164C110.826 41.2407 110.28 41.908 109.526 42.376C108.781 42.844 107.927 43.078 106.965 43.078C106.116 43.078 105.34 42.883 104.638 42.493C103.936 42.0943 103.377 41.544 102.961 40.842C102.554 40.14 102.35 39.347 102.35 38.463ZM116.604 35.72C117.15 35.72 117.635 35.837 118.06 36.071C118.493 36.305 118.831 36.6517 119.074 37.111C119.325 37.5703 119.451 38.125 119.451 38.775V43H117.982V38.996C117.982 38.3547 117.821 37.865 117.501 37.527C117.18 37.1803 116.742 37.007 116.188 37.007C115.633 37.007 115.191 37.1803 114.862 37.527C114.541 37.865 114.381 38.3547 114.381 38.996V43H112.899V33.38H114.381V36.669C114.632 36.3657 114.948 36.1317 115.33 35.967C115.72 35.8023 116.144 35.72 116.604 35.72ZM120.847 39.386C120.847 38.6667 120.995 38.0297 121.289 37.475C121.593 36.9203 122 36.4913 122.511 36.188C123.031 35.876 123.603 35.72 124.227 35.72C124.791 35.72 125.28 35.8327 125.696 36.058C126.121 36.2747 126.459 36.5477 126.71 36.877V35.837H128.205V43H126.71V41.934C126.459 42.272 126.117 42.5537 125.683 42.779C125.25 43.0043 124.756 43.117 124.201 43.117C123.586 43.117 123.023 42.961 122.511 42.649C122 42.3283 121.593 41.8863 121.289 41.323C120.995 40.751 120.847 40.1053 120.847 39.386ZM126.71 39.412C126.71 38.918 126.606 38.489 126.398 38.125C126.199 37.761 125.935 37.4837 125.605 37.293C125.276 37.1023 124.921 37.007 124.539 37.007C124.158 37.007 123.803 37.1023 123.473 37.293C123.144 37.475 122.875 37.748 122.667 38.112C122.468 38.4673 122.368 38.892 122.368 39.386C122.368 39.88 122.468 40.3133 122.667 40.686C122.875 41.0587 123.144 41.3447 123.473 41.544C123.811 41.7347 124.167 41.83 124.539 41.83C124.921 41.83 125.276 41.7347 125.605 41.544C125.935 41.3533 126.199 41.076 126.398 40.712C126.606 40.3393 126.71 39.906 126.71 39.412ZM131.634 36.877C131.85 36.513 132.136 36.2313 132.492 36.032C132.856 35.824 133.285 35.72 133.779 35.72V37.254H133.402C132.821 37.254 132.379 37.4013 132.076 37.696C131.781 37.9907 131.634 38.502 131.634 39.23V43H130.152V35.837H131.634V36.877ZM138.027 35.72C138.582 35.72 139.071 35.8327 139.496 36.058C139.929 36.2747 140.267 36.5477 140.51 36.877V35.837H142.005V43.117C142.005 43.7757 141.866 44.3607 141.589 44.872C141.312 45.392 140.909 45.7993 140.38 46.094C139.86 46.3887 139.236 46.536 138.508 46.536C137.537 46.536 136.731 46.3063 136.09 45.847C135.449 45.3963 135.085 44.781 134.998 44.001H136.467C136.58 44.3737 136.818 44.6727 137.182 44.898C137.555 45.132 137.997 45.249 138.508 45.249C139.106 45.249 139.587 45.067 139.951 44.703C140.324 44.339 140.51 43.8103 140.51 43.117V41.921C140.259 42.259 139.916 42.545 139.483 42.779C139.058 43.0043 138.573 43.117 138.027 43.117C137.403 43.117 136.831 42.961 136.311 42.649C135.8 42.3283 135.392 41.8863 135.089 41.323C134.794 40.751 134.647 40.1053 134.647 39.386C134.647 38.6667 134.794 38.0297 135.089 37.475C135.392 36.9203 135.8 36.4913 136.311 36.188C136.831 35.876 137.403 35.72 138.027 35.72ZM140.51 39.412C140.51 38.918 140.406 38.489 140.198 38.125C139.999 37.761 139.734 37.4837 139.405 37.293C139.076 37.1023 138.72 37.007 138.339 37.007C137.958 37.007 137.602 37.1023 137.273 37.293C136.944 37.475 136.675 37.748 136.467 38.112C136.268 38.4673 136.168 38.892 136.168 39.386C136.168 39.88 136.268 40.3133 136.467 40.686C136.675 41.0587 136.944 41.3447 137.273 41.544C137.611 41.7347 137.966 41.83 138.339 41.83C138.72 41.83 139.076 41.7347 139.405 41.544C139.734 41.3533 139.999 41.076 140.198 40.712C140.406 40.3393 140.51 39.906 140.51 39.412ZM150.517 39.243C150.517 39.5117 150.499 39.7543 150.465 39.971H144.992C145.035 40.543 145.247 41.0023 145.629 41.349C146.01 41.6957 146.478 41.869 147.033 41.869C147.83 41.869 148.393 41.5353 148.723 40.868H150.322C150.105 41.5267 149.711 42.0683 149.139 42.493C148.575 42.909 147.873 43.117 147.033 43.117C146.348 43.117 145.733 42.9653 145.187 42.662C144.649 42.35 144.225 41.9167 143.913 41.362C143.609 40.7987 143.458 40.1487 143.458 39.412C143.458 38.6753 143.605 38.0297 143.9 37.475C144.203 36.9117 144.623 36.4783 145.161 36.175C145.707 35.8717 146.331 35.72 147.033 35.72C147.709 35.72 148.311 35.8673 148.84 36.162C149.368 36.4567 149.78 36.8727 150.075 37.41C150.369 37.9387 150.517 38.5497 150.517 39.243ZM148.97 38.775C148.961 38.229 148.766 37.7913 148.385 37.462C148.003 37.1327 147.531 36.968 146.968 36.968C146.456 36.968 146.019 37.1327 145.655 37.462C145.291 37.7827 145.074 38.2203 145.005 38.775H148.97Z" fill="white"/>
</g>
<defs>
<filter id="filter0_d_1055_616" x="35" y="0" width="152" height="76" filterUnits="userSpaceOnUse" color-interpolation-filters="sRGB">
<feFlood flood-opacity="0" result="BackgroundImageFix"/>
<feColorMatrix in="SourceAlpha" type="matrix" values="0 0 0 0 0 0 0 0 0 0 0 0 0 0 0 0 0 0 127 0" result="hardAlpha"/>
<feOffset/>
<feGaussianBlur stdDeviation="12"/>
<feComposite in2="hardAlpha" operator="out"/>
<feColorMatrix type="matrix" values="0 0 0 0 0 0 0 0 0 0 0 0 0 0 0 0 0 0 0.25 0"/>
<feBlend mode="normal" in2="BackgroundImageFix" result="effect1_dropShadow_1055_616"/>
<feBlend mode="normal" in="SourceGraphic" in2="effect1_dropShadow_1055_616" result="shape"/>
</filter>
<linearGradient id="paint0_linear_1055_616" x1="59" y1="38" x2="163" y2="38" gradientUnits="userSpaceOnUse">
<stop stop-color="#4A4745"/>
<stop offset="1" stop-color="#151414"/>
</linearGradient>
</defs>
</svg>
