<svg width="218" height="76" viewBox="0 0 218 76" fill="none" xmlns="http://www.w3.org/2000/svg">
<line x1="201.463" y1="54.433" x2="173.75" y2="38.433" stroke="#7D7978"/>
<line x1="174" y1="38.5" x2="158" y2="38.5" stroke="#7D7978"/>
<circle cx="208" cy="61" r="10" fill="#7D7A78"/>
<circle cx="208" cy="61" r="6" fill="white"/>
<g filter="url(#filter0_d_1055_607)">
<rect x="24" y="24" width="134" height="28" rx="14" fill="url(#paint0_linear_1055_607)"/>
<path d="M38.6045 35.161V37.813H41.7245V39.022H38.6045V41.791H42.1145V43H37.1225V33.952H42.1145V35.161H38.6045ZM43.4458 39.386C43.4458 38.6667 43.5932 38.0297 43.8878 37.475C44.1912 36.9203 44.5985 36.4913 45.1098 36.188C45.6298 35.876 46.2018 35.72 46.8258 35.72C47.3892 35.72 47.8788 35.8327 48.2948 36.058C48.7195 36.2747 49.0575 36.5477 49.3088 36.877V35.837H50.8038V43H49.3088V41.934C49.0575 42.272 48.7152 42.5537 48.2818 42.779C47.8485 43.0043 47.3545 43.117 46.7998 43.117C46.1845 43.117 45.6212 42.961 45.1098 42.649C44.5985 42.3283 44.1912 41.8863 43.8878 41.323C43.5932 40.751 43.4458 40.1053 43.4458 39.386ZM49.3088 39.412C49.3088 38.918 49.2048 38.489 48.9968 38.125C48.7975 37.761 48.5332 37.4837 48.2038 37.293C47.8745 37.1023 47.5192 37.007 47.1378 37.007C46.7565 37.007 46.4012 37.1023 46.0718 37.293C45.7425 37.475 45.4738 37.748 45.2658 38.112C45.0665 38.4673 44.9668 38.892 44.9668 39.386C44.9668 39.88 45.0665 40.3133 45.2658 40.686C45.4738 41.0587 45.7425 41.3447 46.0718 41.544C46.4098 41.7347 46.7652 41.83 47.1378 41.83C47.5192 41.83 47.8745 41.7347 48.2038 41.544C48.5332 41.3533 48.7975 41.076 48.9968 40.712C49.2048 40.3393 49.3088 39.906 49.3088 39.412ZM55.3504 43.117C54.7871 43.117 54.2801 43.0173 53.8294 42.818C53.3874 42.61 53.0364 42.3327 52.7764 41.986C52.5164 41.6307 52.3777 41.2363 52.3604 40.803H53.8944C53.9204 41.1063 54.0634 41.362 54.3234 41.57C54.5921 41.7693 54.9257 41.869 55.3244 41.869C55.7404 41.869 56.0611 41.791 56.2864 41.635C56.5204 41.4703 56.6374 41.2623 56.6374 41.011C56.6374 40.7423 56.5074 40.543 56.2474 40.413C55.9961 40.283 55.5931 40.14 55.0384 39.984C54.5011 39.8367 54.0634 39.6937 53.7254 39.555C53.3874 39.4163 53.0927 39.204 52.8414 38.918C52.5987 38.632 52.4774 38.255 52.4774 37.787C52.4774 37.4057 52.5901 37.059 52.8154 36.747C53.0407 36.4263 53.3614 36.175 53.7774 35.993C54.2021 35.811 54.6874 35.72 55.2334 35.72C56.0481 35.72 56.7024 35.928 57.1964 36.344C57.6991 36.7513 57.9677 37.3103 58.0024 38.021H56.5204C56.4944 37.7003 56.3644 37.4447 56.1304 37.254C55.8964 37.0633 55.5801 36.968 55.1814 36.968C54.7914 36.968 54.4924 37.0417 54.2844 37.189C54.0764 37.3363 53.9724 37.5313 53.9724 37.774C53.9724 37.9647 54.0417 38.125 54.1804 38.255C54.3191 38.385 54.4881 38.489 54.6874 38.567C54.8867 38.6363 55.1814 38.7273 55.5714 38.84C56.0914 38.9787 56.5161 39.1217 56.8454 39.269C57.1834 39.4077 57.4737 39.6157 57.7164 39.893C57.9591 40.1703 58.0847 40.5387 58.0934 40.998C58.0934 41.4053 57.9807 41.7693 57.7554 42.09C57.5301 42.4107 57.2094 42.662 56.7934 42.844C56.3861 43.026 55.9051 43.117 55.3504 43.117ZM66.1427 35.837L61.7487 46.367H60.2147L61.6707 42.883L58.8497 35.837H60.5007L62.5157 41.297L64.6087 35.837H66.1427ZM76.0851 41.154H72.3021L71.6521 43H70.1051L73.3421 33.952H75.0581L78.2951 43H76.7351L76.0851 41.154ZM75.6691 39.945L74.2001 35.746L72.7181 39.945H75.6691ZM79.2085 39.386C79.2085 38.6667 79.3559 38.0297 79.6505 37.475C79.9539 36.9203 80.3612 36.4913 80.8725 36.188C81.3925 35.876 81.9689 35.72 82.6015 35.72C83.0695 35.72 83.5289 35.824 83.9795 36.032C84.4389 36.2313 84.8029 36.5 85.0715 36.838V33.38H86.5665V43H85.0715V41.921C84.8289 42.2677 84.4909 42.5537 84.0575 42.779C83.6329 43.0043 83.1432 43.117 82.5885 43.117C81.9645 43.117 81.3925 42.961 80.8725 42.649C80.3612 42.3283 79.9539 41.8863 79.6505 41.323C79.3559 40.751 79.2085 40.1053 79.2085 39.386ZM85.0715 39.412C85.0715 38.918 84.9675 38.489 84.7595 38.125C84.5602 37.761 84.2959 37.4837 83.9665 37.293C83.6372 37.1023 83.2819 37.007 82.9005 37.007C82.5192 37.007 82.1639 37.1023 81.8345 37.293C81.5052 37.475 81.2365 37.748 81.0285 38.112C80.8292 38.4673 80.7295 38.892 80.7295 39.386C80.7295 39.88 80.8292 40.3133 81.0285 40.686C81.2365 41.0587 81.5052 41.3447 81.8345 41.544C82.1725 41.7347 82.5279 41.83 82.9005 41.83C83.2819 41.83 83.6372 41.7347 83.9665 41.544C84.2959 41.3533 84.5602 41.076 84.7595 40.712C84.9675 40.3393 85.0715 39.906 85.0715 39.412ZM89.2671 34.888C88.9984 34.888 88.7731 34.797 88.5911 34.615C88.4091 34.433 88.3181 34.2077 88.3181 33.939C88.3181 33.6703 88.4091 33.445 88.5911 33.263C88.7731 33.081 88.9984 32.99 89.2671 32.99C89.5271 32.99 89.7481 33.081 89.9301 33.263C90.1121 33.445 90.2031 33.6703 90.2031 33.939C90.2031 34.2077 90.1121 34.433 89.9301 34.615C89.7481 34.797 89.5271 34.888 89.2671 34.888ZM89.9951 44.404C89.9951 45.106 89.8174 45.613 89.4621 45.925C89.1154 46.2457 88.6084 46.406 87.9411 46.406H87.1741V45.158H87.6811C87.9844 45.158 88.1968 45.0973 88.3181 44.976C88.4481 44.8633 88.5131 44.6727 88.5131 44.404V35.837H89.9951V44.404ZM98.4278 35.837V43H96.9458V42.155C96.7118 42.4497 96.4042 42.6837 96.0228 42.857C95.6502 43.0217 95.2515 43.104 94.8268 43.104C94.2635 43.104 93.7565 42.987 93.3058 42.753C92.8638 42.519 92.5128 42.1723 92.2528 41.713C92.0015 41.2537 91.8758 40.699 91.8758 40.049V35.837H93.3448V39.828C93.3448 40.4693 93.5052 40.9633 93.8258 41.31C94.1465 41.648 94.5842 41.817 95.1388 41.817C95.6935 41.817 96.1312 41.648 96.4518 41.31C96.7812 40.9633 96.9458 40.4693 96.9458 39.828V35.837H98.4278ZM102.983 43.117C102.42 43.117 101.913 43.0173 101.462 42.818C101.02 42.61 100.669 42.3327 100.409 41.986C100.149 41.6307 100.011 41.2363 99.9932 40.803H101.527C101.553 41.1063 101.696 41.362 101.956 41.57C102.225 41.7693 102.559 41.869 102.957 41.869C103.373 41.869 103.694 41.791 103.919 41.635C104.153 41.4703 104.27 41.2623 104.27 41.011C104.27 40.7423 104.14 40.543 103.88 40.413C103.629 40.283 103.226 40.14 102.671 39.984C102.134 39.8367 101.696 39.6937 101.358 39.555C101.02 39.4163 100.726 39.204 100.474 38.918C100.232 38.632 100.11 38.255 100.11 37.787C100.11 37.4057 100.223 37.059 100.448 36.747C100.674 36.4263 100.994 36.175 101.41 35.993C101.835 35.811 102.32 35.72 102.866 35.72C103.681 35.72 104.335 35.928 104.829 36.344C105.332 36.7513 105.601 37.3103 105.635 38.021H104.153C104.127 37.7003 103.997 37.4447 103.763 37.254C103.529 37.0633 103.213 36.968 102.814 36.968C102.424 36.968 102.125 37.0417 101.917 37.189C101.709 37.3363 101.605 37.5313 101.605 37.774C101.605 37.9647 101.675 38.125 101.813 38.255C101.952 38.385 102.121 38.489 102.32 38.567C102.52 38.6363 102.814 38.7273 103.204 38.84C103.724 38.9787 104.149 39.1217 104.478 39.269C104.816 39.4077 105.107 39.6157 105.349 39.893C105.592 40.1703 105.718 40.5387 105.726 40.998C105.726 41.4053 105.614 41.7693 105.388 42.09C105.163 42.4107 104.842 42.662 104.426 42.844C104.019 43.026 103.538 43.117 102.983 43.117ZM109.057 37.046V41.011C109.057 41.2797 109.117 41.4747 109.239 41.596C109.369 41.7087 109.585 41.765 109.889 41.765H110.799V43H109.629C108.961 43 108.45 42.844 108.095 42.532C107.739 42.22 107.562 41.713 107.562 41.011V37.046H106.717V35.837H107.562V34.056H109.057V35.837H110.799V37.046H109.057ZM120.835 35.72C121.399 35.72 121.901 35.837 122.343 36.071C122.794 36.305 123.145 36.6517 123.396 37.111C123.656 37.5703 123.786 38.125 123.786 38.775V43H122.317V38.996C122.317 38.3547 122.157 37.865 121.836 37.527C121.516 37.1803 121.078 37.007 120.523 37.007C119.969 37.007 119.527 37.1803 119.197 37.527C118.877 37.865 118.716 38.3547 118.716 38.996V43H117.247V38.996C117.247 38.3547 117.087 37.865 116.766 37.527C116.446 37.1803 116.008 37.007 115.453 37.007C114.899 37.007 114.457 37.1803 114.127 37.527C113.807 37.865 113.646 38.3547 113.646 38.996V43H112.164V35.837H113.646V36.656C113.889 36.3613 114.197 36.1317 114.569 35.967C114.942 35.8023 115.341 35.72 115.765 35.72C116.337 35.72 116.849 35.8413 117.299 36.084C117.75 36.3267 118.097 36.6777 118.339 37.137C118.556 36.7037 118.894 36.3613 119.353 36.11C119.813 35.85 120.307 35.72 120.835 35.72ZM132.237 39.243C132.237 39.5117 132.22 39.7543 132.185 39.971H126.712C126.756 40.543 126.968 41.0023 127.349 41.349C127.731 41.6957 128.199 41.869 128.753 41.869C129.551 41.869 130.114 41.5353 130.443 40.868H132.042C131.826 41.5267 131.431 42.0683 130.859 42.493C130.296 42.909 129.594 43.117 128.753 43.117C128.069 43.117 127.453 42.9653 126.907 42.662C126.37 42.35 125.945 41.9167 125.633 41.362C125.33 40.7987 125.178 40.1487 125.178 39.412C125.178 38.6753 125.326 38.0297 125.62 37.475C125.924 36.9117 126.344 36.4783 126.881 36.175C127.427 35.8717 128.051 35.72 128.753 35.72C129.429 35.72 130.032 35.8673 130.56 36.162C131.089 36.4567 131.501 36.8727 131.795 37.41C132.09 37.9387 132.237 38.5497 132.237 39.243ZM130.69 38.775C130.682 38.229 130.487 37.7913 130.105 37.462C129.724 37.1327 129.252 36.968 128.688 36.968C128.177 36.968 127.739 37.1327 127.375 37.462C127.011 37.7827 126.795 38.2203 126.725 38.775H130.69ZM137.31 35.72C137.873 35.72 138.376 35.837 138.818 36.071C139.268 36.305 139.619 36.6517 139.871 37.111C140.122 37.5703 140.248 38.125 140.248 38.775V43H138.779V38.996C138.779 38.3547 138.618 37.865 138.298 37.527C137.977 37.1803 137.539 37.007 136.985 37.007C136.43 37.007 135.988 37.1803 135.659 37.527C135.338 37.865 135.178 38.3547 135.178 38.996V43H133.696V35.837H135.178V36.656C135.42 36.3613 135.728 36.1317 136.101 35.967C136.482 35.8023 136.885 35.72 137.31 35.72ZM143.867 37.046V41.011C143.867 41.2797 143.928 41.4747 144.049 41.596C144.179 41.7087 144.396 41.765 144.699 41.765H145.609V43H144.439C143.772 43 143.26 42.844 142.905 42.532C142.55 42.22 142.372 41.713 142.372 41.011V37.046H141.527V35.837H142.372V34.056H143.867V35.837H145.609V37.046H143.867Z" fill="white"/>
</g>
<defs>
<filter id="filter0_d_1055_607" x="0" y="0" width="182" height="76" filterUnits="userSpaceOnUse" color-interpolation-filters="sRGB">
<feFlood flood-opacity="0" result="BackgroundImageFix"/>
<feColorMatrix in="SourceAlpha" type="matrix" values="0 0 0 0 0 0 0 0 0 0 0 0 0 0 0 0 0 0 127 0" result="hardAlpha"/>
<feOffset/>
<feGaussianBlur stdDeviation="12"/>
<feComposite in2="hardAlpha" operator="out"/>
<feColorMatrix type="matrix" values="0 0 0 0 0 0 0 0 0 0 0 0 0 0 0 0 0 0 0.25 0"/>
<feBlend mode="normal" in2="BackgroundImageFix" result="effect1_dropShadow_1055_607"/>
<feBlend mode="normal" in="SourceGraphic" in2="effect1_dropShadow_1055_607" result="shape"/>
</filter>
<linearGradient id="paint0_linear_1055_607" x1="24" y1="38" x2="158" y2="38" gradientUnits="userSpaceOnUse">
<stop stop-color="#4A4745"/>
<stop offset="1" stop-color="#151414"/>
</linearGradient>
</defs>
</svg>
