<svg width="135" height="76" viewBox="0 0 135 76" fill="none" xmlns="http://www.w3.org/2000/svg">
<line y1="-0.5" x2="32" y2="-0.5" transform="matrix(0.866025 -0.5 -0.5 -0.866025 16.2871 54)" stroke="#7D7978"/>
<line y1="-0.5" x2="16" y2="-0.5" transform="matrix(1 8.74228e-08 8.74228e-08 -1 44 38)" stroke="#7D7978"/>
<ellipse cx="10" cy="10" rx="10" ry="10" transform="matrix(-1 0 0 1 20 51)" fill="#7D7A78"/>
<ellipse cx="6" cy="6" rx="6" ry="6" transform="matrix(-1 0 0 1 16 55)" fill="white"/>
<g filter="url(#filter0_d_1055_572)">
<rect x="57" y="24" width="54" height="28" rx="14" fill="url(#paint0_linear_1055_572)"/>
<path d="M76.4411 40.426C76.4411 40.8593 76.3328 41.2667 76.1161 41.648C75.9081 42.0293 75.5961 42.35 75.1801 42.61C74.7728 42.87 74.2875 43.026 73.7241 43.078V44.131H72.8791V43.078C72.0645 43 71.4058 42.7443 70.9031 42.311C70.4005 41.8777 70.1491 41.3057 70.1491 40.595H71.7351C71.7611 40.933 71.8695 41.2147 72.0601 41.44C72.2508 41.6567 72.5238 41.7953 72.8791 41.856V38.996C72.2985 38.8487 71.8261 38.7013 71.4621 38.554C71.0981 38.398 70.7861 38.1553 70.5261 37.826C70.2748 37.4967 70.1491 37.046 70.1491 36.474C70.1491 35.7547 70.4005 35.161 70.9031 34.693C71.4058 34.2163 72.0645 33.939 72.8791 33.861V32.808H73.7241V33.861C74.4868 33.9303 75.0978 34.173 75.5571 34.589C76.0251 34.9963 76.2895 35.5597 76.3501 36.279H74.7641C74.7381 36.0103 74.6341 35.772 74.4521 35.564C74.2701 35.3473 74.0275 35.2 73.7241 35.122V37.93C74.3048 38.0687 74.7771 38.216 75.1411 38.372C75.5051 38.5193 75.8128 38.7577 76.0641 39.087C76.3155 39.4077 76.4411 39.854 76.4411 40.426ZM71.6571 36.396C71.6571 36.7513 71.7611 37.0287 71.9691 37.228C72.1858 37.4273 72.4891 37.5877 72.8791 37.709V35.083C72.5065 35.1263 72.2075 35.2607 71.9821 35.486C71.7655 35.7113 71.6571 36.0147 71.6571 36.396ZM73.7241 41.856C74.1055 41.7953 74.4045 41.6437 74.6211 41.401C74.8378 41.1497 74.9461 40.8507 74.9461 40.504C74.9461 40.1573 74.8378 39.8887 74.6211 39.698C74.4131 39.4987 74.1141 39.3383 73.7241 39.217V41.856ZM78.4092 34.875V33.523H81.1132V43H79.6182V34.875H78.4092ZM89.2591 34.797H84.9041V37.384C85.0861 37.1413 85.3548 36.9377 85.7101 36.773C86.0741 36.6083 86.4598 36.526 86.8671 36.526C87.5951 36.526 88.1845 36.682 88.6351 36.994C89.0945 37.306 89.4195 37.7003 89.6101 38.177C89.8095 38.6537 89.9091 39.1563 89.9091 39.685C89.9091 40.3263 89.7835 40.8983 89.5321 41.401C89.2895 41.895 88.9211 42.285 88.4271 42.571C87.9418 42.857 87.3438 43 86.6331 43C85.6885 43 84.9301 42.766 84.3581 42.298C83.7861 41.83 83.4438 41.2103 83.3311 40.439H84.7741C84.8695 40.8463 85.0818 41.1713 85.4111 41.414C85.7405 41.648 86.1521 41.765 86.6461 41.765C87.2615 41.765 87.7208 41.5787 88.0241 41.206C88.3361 40.8333 88.4921 40.3393 88.4921 39.724C88.4921 39.1 88.3361 38.6233 88.0241 38.294C87.7121 37.956 87.2528 37.787 86.6461 37.787C86.2215 37.787 85.8618 37.8953 85.5671 38.112C85.2811 38.32 85.0731 38.606 84.9431 38.97H83.5391V33.497H89.2591V34.797ZM91.4519 38.138C91.4519 36.6387 91.7032 35.4687 92.2059 34.628C92.7172 33.7787 93.5925 33.354 94.8319 33.354C96.0712 33.354 96.9422 33.7787 97.4449 34.628C97.9562 35.4687 98.2119 36.6387 98.2119 38.138C98.2119 39.6547 97.9562 40.842 97.4449 41.7C96.9422 42.5493 96.0712 42.974 94.8319 42.974C93.5925 42.974 92.7172 42.5493 92.2059 41.7C91.7032 40.842 91.4519 39.6547 91.4519 38.138ZM96.7559 38.138C96.7559 37.436 96.7082 36.8423 96.6129 36.357C96.5262 35.8717 96.3442 35.4773 96.0669 35.174C95.7895 34.862 95.3779 34.706 94.8319 34.706C94.2859 34.706 93.8742 34.862 93.5969 35.174C93.3195 35.4773 93.1332 35.8717 93.0379 36.357C92.9512 36.8423 92.9079 37.436 92.9079 38.138C92.9079 38.866 92.9512 39.477 93.0379 39.971C93.1245 40.465 93.3065 40.8637 93.5839 41.167C93.8699 41.4703 94.2859 41.622 94.8319 41.622C95.3779 41.622 95.7895 41.4703 96.0669 41.167C96.3529 40.8637 96.5392 40.465 96.6259 39.971C96.7125 39.477 96.7559 38.866 96.7559 38.138Z" fill="white"/>
</g>
<defs>
<filter id="filter0_d_1055_572" x="33" y="0" width="102" height="76" filterUnits="userSpaceOnUse" color-interpolation-filters="sRGB">
<feFlood flood-opacity="0" result="BackgroundImageFix"/>
<feColorMatrix in="SourceAlpha" type="matrix" values="0 0 0 0 0 0 0 0 0 0 0 0 0 0 0 0 0 0 127 0" result="hardAlpha"/>
<feOffset/>
<feGaussianBlur stdDeviation="12"/>
<feComposite in2="hardAlpha" operator="out"/>
<feColorMatrix type="matrix" values="0 0 0 0 0 0 0 0 0 0 0 0 0 0 0 0 0 0 0.25 0"/>
<feBlend mode="normal" in2="BackgroundImageFix" result="effect1_dropShadow_1055_572"/>
<feBlend mode="normal" in="SourceGraphic" in2="effect1_dropShadow_1055_572" result="shape"/>
</filter>
<linearGradient id="paint0_linear_1055_572" x1="57" y1="38" x2="111" y2="38" gradientUnits="userSpaceOnUse">
<stop stop-color="#4A4745"/>
<stop offset="1" stop-color="#151414"/>
</linearGradient>
</defs>
</svg>
