<svg width="181" height="76" viewBox="0 0 181 76" fill="none" xmlns="http://www.w3.org/2000/svg">
<line y1="-0.5" x2="32" y2="-0.5" transform="matrix(0.866025 -0.5 -0.5 -0.866025 16.2871 54)" stroke="#7D7978"/>
<line y1="-0.5" x2="16" y2="-0.5" transform="matrix(1 8.74228e-08 8.74228e-08 -1 44 38)" stroke="#7D7978"/>
<ellipse cx="10" cy="10" rx="10" ry="10" transform="matrix(-1 0 0 1 20 51)" fill="#7D7A78"/>
<ellipse cx="6" cy="6" rx="6" ry="6" transform="matrix(-1 0 0 1 16 55)" fill="white"/>
<g filter="url(#filter0_d_1055_625)">
<rect x="59" y="24" width="118" height="28" rx="14" fill="url(#paint0_linear_1055_625)"/>
<path d="M71.9927 38.463C71.9927 37.579 72.1964 36.786 72.6037 36.084C73.0197 35.382 73.5787 34.836 74.2807 34.446C74.9914 34.0473 75.7671 33.848 76.6077 33.848C77.5697 33.848 78.4234 34.0863 79.1687 34.563C79.9227 35.031 80.4687 35.6983 80.8067 36.565H79.0257C78.7917 36.0883 78.4667 35.733 78.0507 35.499C77.6347 35.265 77.1537 35.148 76.6077 35.148C76.0097 35.148 75.4767 35.2823 75.0087 35.551C74.5407 35.8197 74.1724 36.2053 73.9037 36.708C73.6437 37.2107 73.5137 37.7957 73.5137 38.463C73.5137 39.1303 73.6437 39.7153 73.9037 40.218C74.1724 40.7207 74.5407 41.1107 75.0087 41.388C75.4767 41.6567 76.0097 41.791 76.6077 41.791C77.1537 41.791 77.6347 41.674 78.0507 41.44C78.4667 41.206 78.7917 40.8507 79.0257 40.374H80.8067C80.4687 41.2407 79.9227 41.908 79.1687 42.376C78.4234 42.844 77.5697 43.078 76.6077 43.078C75.7584 43.078 74.9827 42.883 74.2807 42.493C73.5787 42.0943 73.0197 41.544 72.6037 40.842C72.1964 40.14 71.9927 39.347 71.9927 38.463ZM89.0284 35.837V43H87.5464V42.155C87.3124 42.4497 87.0047 42.6837 86.6234 42.857C86.2507 43.0217 85.8521 43.104 85.4274 43.104C84.8641 43.104 84.3571 42.987 83.9064 42.753C83.4644 42.519 83.1134 42.1723 82.8534 41.713C82.6021 41.2537 82.4764 40.699 82.4764 40.049V35.837H83.9454V39.828C83.9454 40.4693 84.1057 40.9633 84.4264 41.31C84.7471 41.648 85.1847 41.817 85.7394 41.817C86.2941 41.817 86.7317 41.648 87.0524 41.31C87.3817 40.9633 87.5464 40.4693 87.5464 39.828V35.837H89.0284ZM93.5838 43.117C93.0205 43.117 92.5135 43.0173 92.0628 42.818C91.6208 42.61 91.2698 42.3327 91.0098 41.986C90.7498 41.6307 90.6111 41.2363 90.5938 40.803H92.1278C92.1538 41.1063 92.2968 41.362 92.5568 41.57C92.8255 41.7693 93.1591 41.869 93.5578 41.869C93.9738 41.869 94.2945 41.791 94.5198 41.635C94.7538 41.4703 94.8708 41.2623 94.8708 41.011C94.8708 40.7423 94.7408 40.543 94.4808 40.413C94.2295 40.283 93.8265 40.14 93.2718 39.984C92.7345 39.8367 92.2968 39.6937 91.9588 39.555C91.6208 39.4163 91.3261 39.204 91.0748 38.918C90.8321 38.632 90.7108 38.255 90.7108 37.787C90.7108 37.4057 90.8235 37.059 91.0488 36.747C91.2741 36.4263 91.5948 36.175 92.0108 35.993C92.4355 35.811 92.9208 35.72 93.4668 35.72C94.2815 35.72 94.9358 35.928 95.4298 36.344C95.9325 36.7513 96.2011 37.3103 96.2358 38.021H94.7538C94.7278 37.7003 94.5978 37.4447 94.3638 37.254C94.1298 37.0633 93.8135 36.968 93.4148 36.968C93.0248 36.968 92.7258 37.0417 92.5178 37.189C92.3098 37.3363 92.2058 37.5313 92.2058 37.774C92.2058 37.9647 92.2751 38.125 92.4138 38.255C92.5525 38.385 92.7215 38.489 92.9208 38.567C93.1201 38.6363 93.4148 38.7273 93.8048 38.84C94.3248 38.9787 94.7495 39.1217 95.0788 39.269C95.4168 39.4077 95.7071 39.6157 95.9498 39.893C96.1925 40.1703 96.3181 40.5387 96.3268 40.998C96.3268 41.4053 96.2141 41.7693 95.9888 42.09C95.7635 42.4107 95.4428 42.662 95.0268 42.844C94.6195 43.026 94.1385 43.117 93.5838 43.117ZM99.6571 37.046V41.011C99.6571 41.2797 99.7178 41.4747 99.8391 41.596C99.9691 41.7087 100.186 41.765 100.489 41.765H101.399V43H100.229C99.5618 43 99.0505 42.844 98.6951 42.532C98.3398 42.22 98.1621 41.713 98.1621 41.011V37.046H97.3171V35.837H98.1621V34.056H99.6571V35.837H101.399V37.046H99.6571ZM105.872 43.117C105.196 43.117 104.585 42.9653 104.039 42.662C103.493 42.35 103.064 41.9167 102.752 41.362C102.44 40.7987 102.284 40.1487 102.284 39.412C102.284 38.684 102.444 38.0383 102.765 37.475C103.086 36.9117 103.523 36.4783 104.078 36.175C104.633 35.8717 105.252 35.72 105.937 35.72C106.622 35.72 107.241 35.8717 107.796 36.175C108.351 36.4783 108.788 36.9117 109.109 37.475C109.43 38.0383 109.59 38.684 109.59 39.412C109.59 40.14 109.425 40.7857 109.096 41.349C108.767 41.9123 108.316 42.35 107.744 42.662C107.181 42.9653 106.557 43.117 105.872 43.117ZM105.872 41.83C106.253 41.83 106.609 41.739 106.938 41.557C107.276 41.375 107.549 41.102 107.757 40.738C107.965 40.374 108.069 39.932 108.069 39.412C108.069 38.892 107.969 38.4543 107.77 38.099C107.571 37.735 107.306 37.462 106.977 37.28C106.648 37.098 106.292 37.007 105.911 37.007C105.53 37.007 105.174 37.098 104.845 37.28C104.524 37.462 104.269 37.735 104.078 38.099C103.887 38.4543 103.792 38.892 103.792 39.412C103.792 40.1833 103.987 40.7813 104.377 41.206C104.776 41.622 105.274 41.83 105.872 41.83ZM119.726 35.72C120.289 35.72 120.792 35.837 121.234 36.071C121.685 36.305 122.036 36.6517 122.287 37.111C122.547 37.5703 122.677 38.125 122.677 38.775V43H121.208V38.996C121.208 38.3547 121.048 37.865 120.727 37.527C120.406 37.1803 119.969 37.007 119.414 37.007C118.859 37.007 118.417 37.1803 118.088 37.527C117.767 37.865 117.607 38.3547 117.607 38.996V43H116.138V38.996C116.138 38.3547 115.978 37.865 115.657 37.527C115.336 37.1803 114.899 37.007 114.344 37.007C113.789 37.007 113.347 37.1803 113.018 37.527C112.697 37.865 112.537 38.3547 112.537 38.996V43H111.055V35.837H112.537V36.656C112.78 36.3613 113.087 36.1317 113.46 35.967C113.833 35.8023 114.231 35.72 114.656 35.72C115.228 35.72 115.739 35.8413 116.19 36.084C116.641 36.3267 116.987 36.6777 117.23 37.137C117.447 36.7037 117.785 36.3613 118.244 36.11C118.703 35.85 119.197 35.72 119.726 35.72ZM133.387 41.154H129.604L128.954 43H127.407L130.644 33.952H132.36L135.597 43H134.037L133.387 41.154ZM132.971 39.945L131.502 35.746L130.02 39.945H132.971ZM143.491 35.837V43H142.009V42.155C141.775 42.4497 141.468 42.6837 141.086 42.857C140.714 43.0217 140.315 43.104 139.89 43.104C139.327 43.104 138.82 42.987 138.369 42.753C137.927 42.519 137.576 42.1723 137.316 41.713C137.065 41.2537 136.939 40.699 136.939 40.049V35.837H138.408V39.828C138.408 40.4693 138.569 40.9633 138.889 41.31C139.21 41.648 139.648 41.817 140.202 41.817C140.757 41.817 141.195 41.648 141.515 41.31C141.845 40.9633 142.009 40.4693 142.009 39.828V35.837H143.491ZM144.953 39.386C144.953 38.6667 145.1 38.0297 145.395 37.475C145.698 36.9203 146.105 36.4913 146.617 36.188C147.137 35.876 147.713 35.72 148.346 35.72C148.814 35.72 149.273 35.824 149.724 36.032C150.183 36.2313 150.547 36.5 150.816 36.838V33.38H152.311V43H150.816V41.921C150.573 42.2677 150.235 42.5537 149.802 42.779C149.377 43.0043 148.887 43.117 148.333 43.117C147.709 43.117 147.137 42.961 146.617 42.649C146.105 42.3283 145.698 41.8863 145.395 41.323C145.1 40.751 144.953 40.1053 144.953 39.386ZM150.816 39.412C150.816 38.918 150.712 38.489 150.504 38.125C150.304 37.761 150.04 37.4837 149.711 37.293C149.381 37.1023 149.026 37.007 148.645 37.007C148.263 37.007 147.908 37.1023 147.579 37.293C147.249 37.475 146.981 37.748 146.773 38.112C146.573 38.4673 146.474 38.892 146.474 39.386C146.474 39.88 146.573 40.3133 146.773 40.686C146.981 41.0587 147.249 41.3447 147.579 41.544C147.917 41.7347 148.272 41.83 148.645 41.83C149.026 41.83 149.381 41.7347 149.711 41.544C150.04 41.3533 150.304 41.076 150.504 40.712C150.712 40.3393 150.816 39.906 150.816 39.412ZM155.011 34.888C154.743 34.888 154.517 34.797 154.335 34.615C154.153 34.433 154.062 34.2077 154.062 33.939C154.062 33.6703 154.153 33.445 154.335 33.263C154.517 33.081 154.743 32.99 155.011 32.99C155.271 32.99 155.492 33.081 155.674 33.263C155.856 33.445 155.947 33.6703 155.947 33.939C155.947 34.2077 155.856 34.433 155.674 34.615C155.492 34.797 155.271 34.888 155.011 34.888ZM155.739 35.837V43H154.257V35.837H155.739ZM160.792 43.117C160.116 43.117 159.505 42.9653 158.959 42.662C158.413 42.35 157.984 41.9167 157.672 41.362C157.36 40.7987 157.204 40.1487 157.204 39.412C157.204 38.684 157.364 38.0383 157.685 37.475C158.006 36.9117 158.443 36.4783 158.998 36.175C159.553 35.8717 160.172 35.72 160.857 35.72C161.542 35.72 162.161 35.8717 162.716 36.175C163.271 36.4783 163.708 36.9117 164.029 37.475C164.35 38.0383 164.51 38.684 164.51 39.412C164.51 40.14 164.345 40.7857 164.016 41.349C163.687 41.9123 163.236 42.35 162.664 42.662C162.101 42.9653 161.477 43.117 160.792 43.117ZM160.792 41.83C161.173 41.83 161.529 41.739 161.858 41.557C162.196 41.375 162.469 41.102 162.677 40.738C162.885 40.374 162.989 39.932 162.989 39.412C162.989 38.892 162.889 38.4543 162.69 38.099C162.491 37.735 162.226 37.462 161.897 37.28C161.568 37.098 161.212 37.007 160.831 37.007C160.45 37.007 160.094 37.098 159.765 37.28C159.444 37.462 159.189 37.735 158.998 38.099C158.807 38.4543 158.712 38.892 158.712 39.412C158.712 40.1833 158.907 40.7813 159.297 41.206C159.696 41.622 160.194 41.83 160.792 41.83Z" fill="white"/>
</g>
<defs>
<filter id="filter0_d_1055_625" x="35" y="0" width="166" height="76" filterUnits="userSpaceOnUse" color-interpolation-filters="sRGB">
<feFlood flood-opacity="0" result="BackgroundImageFix"/>
<feColorMatrix in="SourceAlpha" type="matrix" values="0 0 0 0 0 0 0 0 0 0 0 0 0 0 0 0 0 0 127 0" result="hardAlpha"/>
<feOffset/>
<feGaussianBlur stdDeviation="12"/>
<feComposite in2="hardAlpha" operator="out"/>
<feColorMatrix type="matrix" values="0 0 0 0 0 0 0 0 0 0 0 0 0 0 0 0 0 0 0.25 0"/>
<feBlend mode="normal" in2="BackgroundImageFix" result="effect1_dropShadow_1055_625"/>
<feBlend mode="normal" in="SourceGraphic" in2="effect1_dropShadow_1055_625" result="shape"/>
</filter>
<linearGradient id="paint0_linear_1055_625" x1="59" y1="38" x2="177" y2="38" gradientUnits="userSpaceOnUse">
<stop stop-color="#4A4745"/>
<stop offset="1" stop-color="#151414"/>
</linearGradient>
</defs>
</svg>
