<svg width="18" height="14" viewBox="0 0 18 14" fill="none" xmlns="http://www.w3.org/2000/svg">
<path d="M9.20317 0.333332C9.64817 0.335832 10.7615 0.346665 11.9448 0.394165L12.3648 0.412499C13.5557 0.468332 14.7457 0.564999 15.3365 0.729165C16.124 0.950832 16.7423 1.59583 16.9515 2.41417C17.2848 3.71417 17.3265 6.24917 17.3315 6.86333L17.3323 6.99V7.135C17.3265 7.74917 17.2848 10.285 16.9515 11.5842C16.7398 12.405 16.1207 13.0508 15.3365 13.2692C14.7457 13.4333 13.5557 13.53 12.3648 13.5858L11.9448 13.605C10.7615 13.6517 9.64817 13.6633 9.20317 13.665L9.00734 13.6658H8.79484C7.85317 13.66 3.91484 13.6175 2.6615 13.2692C1.87484 13.0475 1.25567 12.4025 1.0465 11.5842C0.713171 10.2842 0.671504 7.74917 0.666504 7.135V6.86333C0.671504 6.24917 0.713171 3.71333 1.0465 2.41417C1.25817 1.59333 1.87734 0.947499 2.66234 0.729999C3.91484 0.380832 7.854 0.338332 8.79567 0.333332H9.20317ZM7.33234 4.08333V9.91667L12.3323 7L7.33234 4.08333Z" fill="white"/>
</svg>
